<?xml version="1.0" encoding="UTF-8" standalone="no"?>
<svg xmlns="http://www.w3.org/2000/svg" width="303.157278868" height="329.861781229" viewBox="0 0 340.932 370.964" xmlns:dc="http://purl.org/dc/elements/1.1/" xmlns:cc="http://creativecommons.org/ns#" xmlns:rdf="http://www.w3.org/1999/02/22-rdf-syntax-ns#">
  <metadata>
    <rdf:RDF>
      <cc:Work>
        <dc:format>
          image/svg+xml
        </dc:format>
        <dc:type rdf:resource="http://purl.org/dc/dcmitype/StillImage"/>
        <dc:title/>
      </cc:Work>
    </rdf:RDF>
  </metadata>
  <path d="M164.187 370.357c-5.37-1.03-6.706-9.323-2.386-14.814l1.96-2.492-2.84-5.24c-1.56-2.88-3.76-6.23-4.9-7.45-2.62-2.81-2.58-3.23.19-2.55 3.45.85 4.67 2.16 7.85 8.45 2.15 4.26 3.49 5.81 5 5.81 1.93 0 2.05-.48 1.74-7-.31-6.64-.22-7 1.86-7 1.21 0 2.38.34 2.61.76.23.41-.02 7.03-.55 14.71-.7 10.11-.66 14.45.15 15.75 1.03 1.64.71 1.79-3.63 1.66-2.61-.07-5.78-.33-7.03-.57zm6.138-5.93c1.345-9.812.12-12.76-4.32-10.386-5.005 2.68-3.464 15.03 1.877 15.03 1.392 0 1.954-1.06 2.443-4.64zm15.636 3.61c0-1.83.26-2.005 1.46-1.005.89.73 2.64.95 4.45.555 2.95-.647 2.98-.727 2.41-5.84-.73-6.608-1.4-7.297-5.79-5.95-3.42 1.05-3.52 1.004-3.51-1.575.01-1.87.27-2.255.88-1.3.59.934 1.83 1.145 3.96.678 3.04-.67 3.09-.76 2.48-5.357-1.19-9.002-3.18-10.932-8.39-8.142-1.51.81-1.93.71-1.93-.45 0-.95 1.36-1.7 3.75-2.08 10.31-1.62 10.24-1.62 9.69-.19-.56 1.46 3.07 28.09 4.03 29.65.67 1.09-1.24 1.69-8.22 2.57-4.95.63-5.25.54-5.25-1.55zm-54.75-.634c-.68-.277-1.25-1.652-1.25-3.056v-2.55l2.08 2.634c2.22 2.83 4.79 3.38 6.73 1.44 1.98-1.97 1.38-5.51-1.9-11.32-5.29-9.37-3.3-17.62 4.41-18.28 6.4-.54 9.65 3.24 6.7 7.81-.73 1.14-.97.73-.98-1.71-.02-3.91-2.67-5.74-6.32-4.35-3.31 1.26-4.22 5.36-2.08 9.4 5.44 10.25 5.61 10.73 4.96 14.16-.35 1.91-1.63 4.15-2.83 4.99-2.1 1.48-6.9 1.91-9.49.87zm82.3-18.587c.39-9.488.77-17.322.83-17.41.07-.086 4.37 5.458 9.56 12.32 5.19 6.864 10.29 13.08 11.34 13.812 1.78 1.248 1.7 1.377-1.3 2.037-1.77.39-3.49.28-3.83-.242-5.24-7.94-13.72-19.017-14.28-18.667-1.06.654.24 22.78 1.38 23.51.93.596-1.38 1.89-3.38 1.89-.65 0-.75-5.957-.29-17.25zm-95.79 13.56c-1.92-.503-2.2-1.406-.89-2.86 1.29-1.42 9.14-24.27 9.14-26.582 0-1.616.44-1.87 2.25-1.31 1.24.38 2.35.77 2.47.87.13.098-2.01 6.608-4.75 14.466-2.73 7.86-4.72 14.697-4.41 15.197.58.938-.76 1.015-3.8.22zm-22.25-9.2c-4.95-2.535-9.12-4.658-9.27-4.717-.15-.06.01-.84.35-1.73.54-1.41 1.05-1.3 3.87.85 1.79 1.36 3.68 2.47 4.21 2.47s3.86-6.05 7.41-13.45c3.55-7.4 6.67-13.46 6.95-13.47.28-.02 1.37.63 2.42 1.43 1.75 1.32 1.79 1.6.36 3.21-1.36 1.54-12.78 23.55-12.78 24.64 0 .22 1.98.99 4.4 1.7 2.9.86 4.23 1.75 3.89 2.61-.72 1.88-1.75 1.57-11.79-3.58zm147.54-10.426c-2.45-4.94-5.86-11.324-7.59-14.19-3.04-5.044-3.07-5.25-1.2-6.422 1.07-.666 2.05-1.067 2.19-.892.14.176 3.26 6.045 6.95 13.043 3.69 6.99 7.44 13.13 8.33 13.63 1.39.77 1.19 1.13-1.29 2.35l-2.92 1.44-4.45-8.98zm18.22-.975c-.56-1.215-4.67-7.12-9.14-13.124-4.47-6-7.95-11.08-7.74-11.3.22-.21 5.95 1.04 12.75 2.78 17.76 4.56 17.57 4.52 16.28 2.85-8.19-10.64-12.71-15.91-13.67-15.91-.64 0-.34-.79.67-1.75 1.14-1.09 1.99-1.34 2.24-.66.23.6 4.45 6.45 9.38 13 4.93 6.55 8.97 12.3 8.97 12.77 0 .47-.79.56-1.75.19-3.7-1.42-27.65-7.47-28.04-7.09-.48.49 10.22 14.32 12.96 16.74 1.88 1.66 1.88 1.71.02 2.71-1.54.82-2.09.6-2.92-1.19zm-194.26-7.36c0-.36 2.3-6.676 5.11-14.037 2.81-7.36 5.17-14.493 5.25-15.848.17-2.935.78-3.07 2.97-.66 1.52 1.674 1.49 2.198-.42 7.23l-2.06 5.422 2.84 2.267c1.56 1.24 3.23 2.26 3.72 2.27 1.66.01 7.42-4.03 8.03-5.63.5-1.29.9-1.36 2.1-.36 1.77 1.46 1.95 2.99.35 2.99-.62 0-6.86 3.82-13.86 8.5-12.42 8.3-14 9.18-14 7.85zm10.91-8.02c1.98-1.47 3.78-2.818 4.01-2.995.6-.47-3.06-4.334-4.1-4.334-.72 0-4.81 8.145-4.81 9.583 0 .96 1.52.26 4.91-2.26zm78.27.63c-48.94-6.147-88.72-37.324-106.56-83.52-5.64-14.606-8.04-28.35-8.02-45.94.02-27.417 6.83-50.04 21.99-73.08 7.9-12.003 23.24-27.198 36.11-35.762 8.13-5.405 10.32-7.37 10.83-9.716.66-2.98 1.86-3.764 2.99-1.94 1.03 1.66 4.45 1.148 12.93-1.934 4.44-1.613 9.97-3.425 12.28-4.027 2.32-.602 4.39-1.42 4.61-1.818.22-.397-.16-5.222-.85-10.722-.93-7.5-.98-12.63-.19-20.514 1.02-10.145.96-10.794-1.61-18.503-3.61-10.86-3.51-12.01 1.31-14.47 16.31-8.32 43.67-6.16 57.73 4.56 1.82 1.38 3.31 3 3.31 3.58 0 .58-2.08 5.5-4.64 10.93l-4.64 9.87 1.56 5.48c1.69 5.94 1.65 6.31-1.89 17.85-3.45 11.27-3.47 11.2 3.86 12.71 8.85 1.83 21.91 6.5 31.25 11.19 30.23 15.16 54.54 43.85 64.86 76.53 5.91 18.7 7.76 42.45 4.69 60.25-6.22 36.1-25.93 67.07-55.79 87.66-7.73 5.33-23.71 13.09-33.25 16.16-14.87 4.77-37.88 7.01-52.82 5.13zm7.7-4.21c1.75-5.527 2.5-11.374 1.32-10.25-1.11 1.062-5.19 10.91-5.19 12.538 0 2.378 2.95.637 3.88-2.287zm5.54 1c.25-1.237.68-8.55.94-16.25.45-13.01.38-13.76-1-10.6-1.37 3.145-3.46 27.657-2.45 28.674 1.03 1.02 2.09.25 2.51-1.83zm7.48-21.5c-.34-28.994-.6-30.925-2.99-22.446-1.53 5.43-1.69 8.97-1.18 26.23.56 18.85.7 19.96 2.52 19.96 1.86 0 1.92-.86 1.65-23.75zm9.95 22.208c.48-.434-1.79-55.454-2.41-58.272-.37-1.7-1.08-2.23-2.72-2-2.47.36-2.43-.65-1.57 43.59l.36 18.28 3-.64c1.65-.35 3.16-.78 3.35-.95zm-26.05-7.457c4.19-13.292 15.21-53.912 15.21-56.06 0-2.276-4.72-10.94-5.95-10.94-.42 0-4.07 5.003-8.12 11.118-8.14 12.317-13.2 16.922-21.43 19.518l-5.25 1.656 4.31 16.604c2.37 9.132 4.79 17.954 5.39 19.604.97 2.682.93 2.805-.34 1.168-1.35-1.742-1.44-1.718-1.87.5-.24 1.283-.5-.005-.58-2.86-.16-6.384-1.67-7.647-3.07-2.584-1.74 6.265-1.44 7.12 2.69 7.828 2.07.354 5.1 1.02 6.75 1.48 1.65.458 4.56.75 6.47.65 3.4-.18 3.51-.327 5.83-7.682zm37.55 5.862l5.67-1.138v-28.795c0-32.457.91-29.227-8.57-30.426-3.73-.48-5.37-.28-6.22.74-.84 1.01-.98 9.32-.52 31.07.72 33.54-.3 30.54 9.65 28.54zm-61.87-4.112c1.01-4.54 2.4-16.978 2.02-18.097-.21-.64-.92-3.18-1.58-5.66-1.11-4.14-1.27-4.3-1.95-2-.41 1.37-.79 4.12-.84 6.1-.24 8.82-4.21 12.9-12.56 12.9-5.09 0-4.35-1.65 1.01-2.25 4.65-.53 8.46-2.98 8.46-5.45 0-1.01-1.19-.69-4.33 1.15-4.46 2.61-9.46 3.25-12.55 1.6-.96-.52-2.53-2.66-3.47-4.76-.95-2.1-2.96-4.53-4.48-5.4-3.12-1.79-7.27-10.58-14.58-30.91-5.83-16.21-5.84-13.02-.01 5.78 9.58 30.91 11.24 34.36 17.97 37.33 2.46 1.09 4.48 2.4 4.48 2.92 0 1.05 4.38 3.09 14 6.53 8.11 2.89 7.86 2.88 8.46.18zm77.69-.578c1.83-1.917-5.07-44.172-7.21-44.172-.54 0-.93 9.565-.93 23.11v23.112l3.75-.69c2.07-.378 4.04-.99 4.4-1.36zm6.76-7.54c-.05-2.822-.42-6.257-.82-7.632-.59-2.04-.94-1.29-1.9 4.082-1.62 9.098-1.56 9.83.83 9.207 1.69-.442 1.99-1.318 1.9-5.656zm7.56-5.57c-1.16-11.563-4.24-22.062-6.47-22.062-1.21 0-1.2 1.033.03 13 1.87 18.134 1.84 18.023 4.65 16.744 2.36-1.073 2.43-1.393 1.8-7.682zm13.54-1.405c2.48-1.64 6.78-4.896 9.57-7.237l5.07-4.257-1.26-10.84c-1.64-14.06-3.75-24.84-7.96-40.7-3.49-13.16-6.53-19.2-11.47-22.86-5.47-4.05-14.38-4.07-19.78-.03-4.39 3.27-3.64 3.92 5.297 4.55 16.098 1.13 15.5-1.29 11.927 48.61l-2.87 39.95 3.5-2.11c1.927-1.16 5.527-3.45 8-5.09zm-23.47-16.64c1.63-18.905 1.42-33.88-.52-37.014-1.2-1.95-3.43.07-7.08 6.44-3.41 5.94-3.57 8.84-.96 17.42 1.65 5.42 3.65 15.99 5.69 29.98.27 1.84.65 3.19.85 2.99.2-.2 1.12-9.12 2.04-19.83zM124.6 304.16c4.996-3.046 9.505-14.667 6.43-16.568-1.114-.688-4.38 5.117-3.596 6.388.96 1.554-1.556 6.925-3.99 8.52-2.15 1.407-8.46 2.238-8.46 1.113 0-.25 1.818-5.153 4.037-10.897 4.88-12.636 8.15-17.362 14.88-21.5 3.35-2.057 6.32-5.026 8.59-8.584 5.52-8.62 9.29-10.224 16.74-7.11 3.33 1.39 3.53 1.354 4.52-.825.85-1.852.69-2.497-.84-3.454-2.39-1.498-10.37-1.525-13.22-.045-1.2.622-7.85 6.67-14.78 13.442-15.9 15.544-18.72 16.51-24.55 8.42-11.26-15.613-15.31-16.23-8.73-1.327 1.26 2.842 3.81 6.692 5.67 8.554 3.19 3.19 3.43 3.908 4.07 12.292.4 5.14 1.32 9.87 2.19 11.19 1.89 2.88 6.7 3.05 11.07.38zm-26.224-5.69c-3.982-8.92-8.1-21.41-12-36.404-1.932-7.425-3.934-13.928-4.45-14.45-1.21-1.225-1.22-1.506.56 15.57.826 7.91 1.626 17.753 1.778 21.876l.28 7.497 7.827 6.31c4.31 3.47 8.01 6.13 8.24 5.9.23-.23-.78-3.07-2.23-6.32zm26.118-3.238c-.465-1.86.376-3.4 3.94-7.21 2.9-3.102 4.32-5.408 3.94-6.402-.33-.855-.197-1.554.294-1.554.857 0 4.32-5.155 4.32-6.43 0-.342-1.28.042-2.85.853-6.637 3.43-13.36 14.44-14.7 24.07l-.694 5 3.173-2.99c2.42-2.28 3.03-3.55 2.58-5.35zm-15.504-5.992c0-3.843-.503-5.3-2.477-7.154-4.04-3.796-10.44-15.253-11.406-20.423-.867-4.65-3.412-8.634-4.694-7.353-2.24 2.24 14.564 39.71 17.826 39.747.41.005.75-2.163.75-4.817zm-26.404-1.924c-.31-1.513-1.247-10.175-2.08-19.25-2.264-24.66-2.154-24.196-7.095-29.984-2.4-2.818-4.9-6.9-5.55-9.07-1.06-3.564-.9-4.646 1.73-11.196 2.82-7.032 2.92-7.944 3.56-30.25.71-24.81 1.18-27.664 7.38-45.5 5.83-16.74 11.61-26.99 20-35.427 5.25-5.28 7.02-7.7 6.39-8.69-1.2-1.9-1.13-7.6.13-9.95 1.42-2.65.69-2.46-5.33 1.39C82.8 101.5 65.88 120.81 56 141.56c-9.41 19.77-12.433 33.67-12.39 57 .03 14.89.354 18.3 2.64 27.54 4.36 17.61 8.83 28.03 18.22 42.5 4.49 6.92 16.83 21.45 18.22 21.45.25 0 .21-1.24-.1-2.75zm191.884-15.854c15.7-22.375 24.69-53.325 23.127-79.62-2.03-34.177-13.982-61.196-37.55-84.882-11.146-11.203-20.782-18.28-33.7-24.752-8.965-4.49-25.586-10.027-32.602-10.858l-4.75-.563v3.088c0 3.495 3.635 6.766 10.5 9.456 2.2.87 10.115 4.48 17.588 8.04l13.588 6.47 6.08 9.87c11.46 18.62 17.36 32.61 18.72 44.37.35 3.03 1.89 7.98 3.42 11 1.9 3.76 3.16 8.42 3.96 14.71 1.82 14.18 8.31 31.23 15.29 40.18 2.58 3.31 2.33 8.47-.67 13.58-2 3.41-2.4 5.13-1.92 8.18.74 4.66-.26 7.47-5.53 15.58-2.98 4.6-4.02 7.23-4.04 10.24-.03 5.7-1.67 12.15-4.52 17.84-1.35 2.68-2.43 5.17-2.41 5.54.07 1.32 10.71-10.68 15.45-17.43zm-47.87-12.69c-.097-24.65-.285-27.563-1.94-30.086-1.004-1.537-1.915-2.642-2.022-2.457-.106.18.08 12.26.41 26.83.4 17.64 1.03 27.58 1.87 29.75.7 1.78 1.386 3.25 1.53 3.25.143 0 .21-12.28.15-27.3zm36.023 17.324c.66-3.393.14-8.322-3.19-30.404-1.65-10.937-1.334-20.957.7-22.215.55-.342 2.095.405 3.43 1.658 3.02 2.84 3.15 7.02.425 13.93-2.406 6.11-2.534 10.798-.43 15.783l1.57 3.718 2.427-3c7.36-9.1 7.348-15.303-.07-30.41-3.022-6.165-5.5-11.406-5.5-11.65 0-.242 1.016-.45 2.25-.463 2.25-.022 2.25-.022-.25-1.97-4.66-3.635-13.7-7.972-19.944-9.572-5.11-1.31-7.08-1.38-11.09-.42-2.67.64-5.39 1.81-6.04 2.58-.97 1.18-.45 1.42 3.2 1.43 14.13.07 20.88 2.98 20.88 9.03 0 3.42-2.21 4.37-6.72 2.88-1.88-.62-3.57-.96-3.77-.77-.19.2 1.65 4.41 4.09 9.35 5.33 10.78 8.71 23.89 10.92 42.37.9 7.5 1.85 14.3 2.12 15.12.72 2.2 4.14-2.59 4.99-6.96zm-118.83.77c.66-.66 1.2-2.36 1.2-3.778 0-3.39 2.615-7.022 5.055-7.022 2.323 0 2.45.948.475 3.56-.808 1.066-1.483 2.502-1.5 3.19-.066 2.537 1.543 1.113 4.315-3.823 2.226-3.963 2.71-5.812 2.21-8.466-.6-3.195-.826-3.36-3.85-2.796-1.763.33-3.5.88-3.855 1.22-1.11 1.06-8.854 16.79-8.854 17.99 0 1.5 3.28 1.46 4.8-.06zm-18.606-6.55c3.327-2.613 6.71-5.283 7.527-5.934.816-.65 1.215-1.616.89-2.144-.334-.54-3.327.512-6.85 2.41-7.2 3.882-10.42 4.2-14.91 1.47-1.763-1.072-3.587-1.712-4.054-1.424-1.4.865 7.198 10.372 9.378 10.372 1.09 0 4.703-2.138 8.027-4.75zm106.437-8c.455-5.913.835-15.352.848-20.975.024-9.95-.05-10.29-2.84-13l-2.868-2.77.743 3c.41 1.65.944 12.34 1.187 23.75s.816 20.75 1.273 20.75c.457 0 1.2-4.84 1.653-10.75zm-102.34-2.637c8.246-5.89 19.73-11.22 26.21-12.16 2.75-.41 5.89-1.06 6.98-1.45 1.79-.65 1.674-.88-1.2-2.36-1.75-.91-4.12-1.65-5.272-1.65-4.09 0-22.428 7-26.135 9.98-4.194 3.37-5.068 3.69-4.25 1.56.902-2.36 9.3-7.16 17.63-10.09 4.26-1.5 7.75-3.09 7.75-3.54 0-.45-.95-2.42-2.11-4.39l-2.106-3.57 3.15-1.1c2.11-.73 3.82-2.41 5.18-5.08 1.12-2.19 1.8-4.22 1.52-4.5-.28-.28-5.6 1.53-11.82 4.03-6.22 2.5-16.7 5.98-23.3 7.75-15.52 4.14-16.5 4.33-16.5 3.23 0-.51 7.99-3.1 17.75-5.75 20.56-5.59 27.28-7.93 30.46-10.58 3.41-2.84.92-2.39-8.9 1.61-10.76 4.39-21.17 7.41-25.57 7.41-5.18 0-7.74-2.12-14.86-12.35-4.77-6.86-6.23-6.45-5.71 1.62.4 6.21-1.62 7.06-2.73 1.15-.84-4.47 2.28-10.04 5.42-9.69 2.67.29 2.68.57-.33-5.89-3.89-8.36-3.43-12.5 2.55-22.86 4.61-7.99 16.6-36.48 18.93-45.01.54-1.96.61-4.84.16-6.5l-.81-2.98-1.52 3c-.84 1.65-6.17 13.12-11.84 25.5S97.22 178 96.69 178.55c-1.247 1.273-1.59 2.14 9.114-23 4.92-11.55 10.13-23.317 11.57-26.147 2.838-5.54 3.23-8.37 1.6-11.42-1.514-2.835-2.75-2.374-3.794 1.42-.854 3.09-8.534 24.512-18.263 50.94-4.37 11.87-5.79 17.37-4.23 16.406.54-.34-.96 4.21-3.332 10.09-5.1 12.64-5.41 15.04-1.31 10.24 2.99-3.5 4.14-3.18 1.43.4-2.787 3.68-1.057 13.04 3.3 17.85 1.933 2.14 7.58 4.7 10.35 4.7 2.27 0 2.297-.29.353-4.05-2.1-4.05-.58-3.71 2.9.66 3.54 4.44 2.4 5.67-4.69 5.07-6.02-.51-10.66-4.64-13.85-12.36-1.56-3.77-2.76-5.33-4.09-5.33-1.34 0-1.73-.51-1.33-1.75.3-.96 4.35-14.35 9-29.75 10.974-36.35 12.605-41.24 19.12-57.24 5.78-14.2 6.053-15.56 4.385-21.57l-1.06-3.81-3.18 2.01c-14.38 9.1-26.87 30.83-32.25 56.1-1.84 8.63-3.14 37.39-1.58 34.97 2.89-4.49 7.28-23.13 8.06-34.27.64-9.06 1.24-12.25 2.603-13.75 2.57-2.85 4.01-2.44 5.973 1.7 2.75 5.8 1.55 12.1-4.85 25.38-8.5 17.6-18.68 47.53-18.68 54.89 0 6.28 22.76 26.71 39.64 35.57 6.97 3.66 11.38 3.01 19.66-2.89zm-14.762-.57c-1.927-3.73-1.918-4.42.047-3.66 1.93.74 5.42-1.01 5.42-2.71 0-.79-2.95-1.71-7.97-2.5-14.44-2.27-24.36-7.23-30.44-15.2-3.82-5.01-7.2-13-5.5-13 3.63 0 17.16 9.41 27.42 19.07 7.7 7.25 8.77 7.93 12.52 7.93 4.96 0 6.85-.95 13.97-7 6.2-5.28 12.83-9.5 13.64-8.69.29.3-.97 1.32-2.8 2.27-5.06 2.61-15.26 12.88-19.93 20.04-2.29 3.51-4.32 6.38-4.51 6.38-.2 0-1.05-1.33-1.89-2.95zm-15.12-18.84c-6.75-6.39-14.92-11.63-16.55-10.62-1.034.64 2.48 6.4 5.87 9.62 4.19 3.99 11.406 7.76 14.774 7.73 2.938-.03 2.85-.18-4.09-6.74zm102.91 18.1c5.046-.61 6.423-1.93 15.633-15.02 3.25-4.62 3.59-13.69.59-15.88-2.563-1.88-4.102-1.24-3.78 1.56.204 1.78-.107 2.1-1.5 1.56-9.974-3.89-22.33-4.85-26.575-2.07-2.99 1.96-3.665 4.14-.93 3.02 3.78-1.56 5.25-1.69 5.25-.47 0 .69.76 1.81 1.687 2.49 1.555 1.13 1.457 1.69-1.25 7.11-2.005 4.01-4.292 6.81-7.213 8.83-3.8 2.62-4.61 2.83-7.25 1.83-2.558-.97-2.97-.89-2.96.54.03 3.51 1.373 4.22 6.045 3.21 8.13-1.76 13.64-3.56 15.41-5.03 1.58-1.31 1.72-1.26 1.38.51-.27 1.41-1.66 2.24-4.95 2.97-2.52.55-5.66 1.81-6.99 2.8l-2.42 1.79 4-.54c2.2-.3 5.8-.75 8-.99 3.71-.42 3.65-.37-.75.66-5.96 1.4-6.37 3.3-.5 2.35 2.34-.38 6.42-.95 9.07-1.27zm-23.316-10.83c0-.79-27.202-13.61-27.734-13.08-.924.92.847 2.46 6.486 5.66 10.186 5.77 21.25 9.63 21.25 7.41zm8.35-2.97c1.906-1.91 3.99-8.16 3.165-9.49-.34-.56-2.51-1.03-4.82-1.04-2.3-.01-4.85-.43-5.65-.94-1.25-.79-1.2-1.21.38-2.95 3.08-3.4 10.08-5.44 18.94-5.53l8.15-.08 9.74-19.5c5.36-10.73 9.74-19.97 9.75-20.54.02-1.06-36.71-19.11-37.37-18.37-.2.22-8.28 15.25-17.96 33.4l-17.6 33 6.73 3.25c13.61 6.58 21.77 10.14 23.41 10.19.92.03 2.35-.62 3.17-1.44zm75.446-10.43c-.16-1.34-.856-2.61-1.544-2.84-.886-.29-1.24.99-1.217 4.42.03 4.53.13 4.7 1.54 2.83.83-1.1 1.38-3.09 1.22-4.42zm12.93-9.33c.55-4.87-1.037-8.95-4.774-12.26l-2.254-2 .656 3.39c.396 2.04.2 3.94-.495 4.78-.895 1.07-.53 2.62 1.64 6.91 3.155 6.23 4.454 6.02 5.227-.84zm-143.093-.59c7.51-1.97 14.35-5.05 18.37-8.28l2.5-2.01-9.5.63c-20.85 1.39-27.11.32-32.44-5.58-4.2-4.65-5.55-9.22-5.56-18.78 0-8.2-.93-8.83-4.75-3.19-3.95 5.83-2.51 11.86 5.71 23.97 3.74 5.51 3.92 6.05 2 6.05-1.9 0-1.75.42 1.58 4.5 3.58 4.37 3.84 4.5 9.38 4.5 3.13 0 8.84-.83 12.69-1.84zm26.28-8.39c2.87-4.6 12.09-22.67 12.09-23.7 0-2.04-1.94-1.06-5.49 2.78-1.97 2.12-5.14 4.7-7.04 5.73-3.39 1.82-3.47 2.02-3.47 8.06 0 9.17 1.23 11.41 3.91 7.12zm70.24-3.47c6.12-.48 8.77-.23 12.42 1.17 3.77 1.44 4.79 1.53 5.45.45 4.31-6.98-19.77-9.57-28.71-3.08-3.3 2.39-3.08 4.38.35 3.08 1.48-.56 6.19-1.29 10.47-1.62zM143.46 210c5.3-2.58 2.59-3.46-9.546-3.114-11.295.323-11.652.267-14.732-2.325-6.162-5.18-6.285-9.38-.815-27.87 1.44-4.87 2.62-11.03 2.62-13.68 0-5.86 1.326-9.61 4.615-13.06 2.46-2.58 2.47-2.65.81-6.79-.92-2.3-1.902-3.96-2.182-3.68-.903.91-10.195 24.84-12.73 32.8-3.02 9.49-4.17 21.7-2.59 27.52 2.516 9.28 8.536 12.47 22.58 11.98 5.176-.18 10.262-.93 11.97-1.76zm9.044-5.197c-.716-5.6-4.526-21.65-6.7-28.227-.934-2.823-2.11-4.257-4.046-4.937-1.5-.53-3.05-.64-3.44-.25-1.584 1.58 11.73 38.66 13.884 38.66.596 0 .714-2.05.304-5.25zm113.124 1.03c-6.72-9.398-8.64-12.416-8.64-13.595 0-2.5 2.48-.57 4.935 3.834 1.34 2.405 2.6 3.88 2.8 3.273.86-2.58-6.007-11.247-12.89-16.268-10.03-7.32-10.93-7.638-17.136-6.064-2.864.727-5.77 1.53-6.46 1.786-2.807 1.04-.974-2.42 2.51-4.74 8.4-5.6 13.3-9.28 12.885-9.7-.385-.39-5.05.61-11.04 2.36-1.66.48-1.82.16-1.276-2.56.503-2.53.294-3.12-1.104-3.11-3.495.01-13.924 11.73-12.874 14.46.303.78 2.81 2.4 5.57 3.59 4.494 1.93 6.93 4.72 6.28 7.19-.29 1.09.6.94 7.8-1.32l6.5-2.04 1.816 2.24c1.78 2.2 1.764 2.26-.983 3.7l-2.79 1.46 6.28 1.72c5.66 1.55 9.07 3.92 9.16 6.36.02.49-2.22.62-4.97.3-5.76-.69-6.79.84-1.79 2.65 1.77.64 6.15 2.56 9.75 4.28 3.6 1.71 6.72 2.96 6.93 2.78.21-.19-.35-1.36-1.24-2.62zm-121.382-2.66c.72-.696-4.737-18.837-6.11-20.32-.357-.387-2.56 2.53-4.897 6.483-3.27 5.52-4.25 8.203-4.25 11.58v4.396l7.25-.703c3.99-.39 7.59-1.03 8-1.44zm-19.85-2.47c.346-1.843 2.753-6.67 5.35-10.728 4.222-6.6 4.722-7.993 4.746-13.197.03-6.69 1.246-8.074 6.315-7.19 3.076.54 3.24.434 2.246-1.42-1.55-2.9-2.83-3.437-7.96-3.36-4.27.067-4.45-.03-2.595-1.41 1.94-1.436 6.258-1.41 9.617.06 2.59 1.135 1.156-3.92-1.52-5.35-1.747-.935-3.123-.865-6.615.34-2.427.83-4.65 1.28-4.94.983-.785-.78 2.9-2.73 7.38-3.91 2.16-.57 4.11-1.58 4.33-2.25.665-1.99-2.75-2.62-6.635-1.23-6.467 2.32-6.674 2.29-2.926-.36 2.03-1.44 4.37-2.62 5.19-2.62 2.1 0 3.04-1.9 1.27-2.57-1.92-.74-8.5 2.67-11.62 6.02-2.16 2.32-2.54 3.88-3.12 12.85-.46 7.13-1.46 12.46-3.29 17.64-3.05 8.6-3.32 13.62-.94 17.11 3.37 4.93 4.87 5.09 5.71.63zm100.344 1.406c1.24-1.03 2.25-2.51 2.25-3.28 0-1.48 3.318-4.22 11.5-9.5 5.35-3.45 4.108-4.39-2.28-1.72-4.273 1.78-8.242 5.27-12.346 10.84-4.13 5.61-3.684 7.46.877 3.66zm-68.166-14.31c-1.566-26.07-6.474-66.07-8.314-67.75-.3-.28-.29 3.34.03 8.04.75 11.14-.156 12.53-4.03 6.23-1.658-2.69-3.326-5.88-3.71-7.09-1.635-5.16-3.562-.3-3.562 8.97 0 3.95.51 5.42 2.57 7.49 3.21 3.21 3.88 4.99 5.39 14.34 2.11 13.09 7.03 34.38 8.724 37.75 2.916 5.79 3.616 3.86 2.9-8zm82.755 9.75c4.31-.83 8.02-1.5 8.25-1.5.22 0 .41-.39.41-.87 0-1.13-7.67-2.15-11.07-1.47-3.15.63-9.2 5.24-6.94 5.3.82.02 5.02-.64 9.34-1.47zm-76.9-4.27c-.28-1.5-1.35-7.68-2.39-13.73l-1.89-11-.08 13.17c-.1 15.02.24 16.76 2.99 15.29 1.36-.73 1.73-1.75 1.37-3.74zm5.42-17.23c3.25-22.59 4.14-32.89 4.05-46.71-.12-17.1-1.38-12.81-3.9 13.21-2.1 21.66-2.84 26.5-4.08 26.5-2.24 0-2.37-16.52-.4-49 .65-10.73-1.08-10.79-2.2-.08-.35 3.34-1.02 6.07-1.49 6.07-1.57 0-.89-10.51 1.18-18.44 1.13-4.29 1.86-7.99 1.63-8.22-.23-.23-2.27-.11-4.55.25l-4.13.66v5.54c0 7.51-1.28 5.73-2.07-2.88-.48-5.19-1.13-7.35-2.54-8.39-1.56-1.16-2.13-1.17-3.23-.09-1.91 1.86-6.12 17.25-6.14 22.44-.03 4.28 4.64 16.79 5.82 15.61.31-.31.44-4.26.28-8.77-.27-7.83.87-13.71 2.64-13.71.45 0 1.35 3.94 2 8.75.65 4.81 3.013 17.98 5.26 29.25 2.242 11.28 5.064 25.77 6.27 32.2 1.202 6.44 2.475 11.39 2.83 11 .35-.38 1.575-7.22 2.722-15.2zm9.37 3.56l4.68-9.44-1.45-6.82c-2.59-12.19-1.54-32.49 2.12-41.21 1.99-4.74 2.69-3.39 4.83 9.37.92 5.48 1.83 10.13 2.02 10.31 1.15 1.15 2.72-15.63 2.22-23.79-.98-15.92-4.56-23.57-4.81-10.26l-.13 6.75-1.6-6.75-1.6-6.75h-7.22c-3.97 0-7.48.42-7.79.93-2.18 3.52-6.5 57.52-4.75 59.27 1.12 1.12 1.81-4.55 3.68-30.3.76-10.54 1.85-19.63 2.41-20.19 1.64-1.64 3.84.92 4.36 5.08.68 5.43-.89 28.93-3.41 50.89-1.82 15.82-1.98 19.46-.9 20.75.71.86 1.59 1.57 1.95 1.57.36 0 2.76-4.25 5.34-9.44zm83.25 1.48c.87-3.99-.31-11.23-2.34-14.29-.91-1.38-3.14-3.75-4.96-5.27-1.82-1.52-4.85-5.84-6.74-9.59-3.47-6.88-3.7-10.63-.58-9.38l2.89 1.17c.99.41 1.03-.1.17-2.35-.6-1.58-2.7-7.14-4.65-12.36-1.96-5.23-4.92-11.91-6.59-14.86-5.21-9.24-15.65-18.42-26.95-23.67-8.58-4-9.41-3.41-4.76 3.4 2.2 3.23 4 6.83 4 8 0 3.43-1.58 2.45-3-1.87-1.49-4.51-1.58-4.57-3.65-2.5-.85.85-3.32 1.5-5.68 1.51-6.93.02-7.39.97-3.48 7.11 6.64 10.45 6.99 12.13 7.71 37.56.59 20.68.86 23.4 2.53 25.25 2.23 2.46 4.12 2.65 4.95.48.33-.87.6-9.16.6-18.42 0-22.92 2.71-33.61 5.85-23.13 1.72 5.74 1.41 16.63-.91 31.84-2.356 15.44-1.648 18.58 2.4 10.66 3.133-6.14 8.033-10.78 13.083-12.39 3.526-1.13 4.05-1.06 5.22.63 2.665 3.86 3.54 4.38 7.33 4.38 4.34 0 7.04.79 7.04 2.062 0 .47-2.94 2.317-6.53 4.1l-6.537 3.25 4.42 1.29c2.43.71 7.056 3.28 10.28 5.72 3.227 2.44 6.39 4.465 7.037 4.505.648.04 1.466-1.25 1.82-2.877zm-66.87-16.55c2.47.94 4.72 1.49 4.99 1.22 1.28-1.28 2.26-25.49 1.39-34.47-.93-9.57-3.44-19.25-5-19.25-1.06 0-1.69 4.7-1.94 14.46-.45 17.34-2.8 34.15-4.52 32.43-.22-.22-.94-6.92-1.61-14.89-.67-7.98-1.68-15.63-2.24-17-.95-2.33-1.08-2.17-1.92 2.5-1.16 6.47-1.52 31.17-.51 34.79l.78 2.79 3.03-2.16c2.96-2.11 3.13-2.12 7.53-.44zm21.02-21.25c.45-10.43.33-15.25-.39-15.25-2.99 0-3.93 10.63-2.55 29.09.62 8.31.79 8.94 1.49 5.4.43-2.2 1.08-10.86 1.45-19.25zm-123.35 9.68c.03-6.98-1.06-9.16-2.91-5.81-1.41 2.53-1.91 16.03-.65 17.3 1.33 1.33 3.53-5.77 3.55-11.49zm163.33 4.99c-.93-4.61-6.82-13.92-8.82-13.92-1.4 0-.97 1.31 2.36 7.25 5.96 10.59 7.58 12.27 6.46 6.67zM134.96 141.6c0-.58-1.55-5.78-3.44-11.56-1.89-5.773-4.85-15.14-6.56-20.804-2.99-9.85-4.9-12.69-7.08-10.51-1.77 1.77 5.9 28.123 13.192 45.312 1.03 2.413 1.1 2.43 2.47.56.78-1.066 1.41-2.41 1.41-2.99zm1.9-23.3c1-8.08 3.5-16.62 8.18-27.973 1.334-3.238.413-8.786-1.46-8.786-.456 0-1.69 2.25-2.747 5-1.81 4.72-7.6 25.98-8.59 31.57-.57 3.21 1.58 11.5 2.67 10.31.44-.48 1.32-5.03 1.95-10.11zm-2-20.103c2.33-7.338 4.02-13.567 3.74-13.84-1.212-1.217-4.92 1.153-7.053 4.513-1.28 2.02-3.29 4.53-4.46 5.575-1.17 1.05-2.13 2.4-2.14 3-.033 2.19 4.536 15.43 5.1 14.77.32-.37 2.49-6.68 4.824-14.01zm58.77-.243c4.3-.6 8-1.27 8.21-1.48.212-.22-.45-2.54-1.48-5.17l-1.87-4.77-.524 3.5-.526 3.5-15 1.663c-8.25.92-15.22 1.71-15.5 1.77-.27.06.18.54 1 1.07 2.02 1.31 16.02 1.26 25.68-.08zm-78.05-2.4c.33-.865-.7-2.748-2.48-4.53-2.92-2.92-3.1-2.967-4.1-1.09-1.38 2.567-1.33 4.414.15 5.89 1.67 1.675 5.75 1.5 6.43-.28zm53.73-2.737c1.022-.54 3.19-2.49 4.81-4.332 1.62-1.847 3.702-3.6 4.63-3.907 2.35-.763 5.27-7.34 5.127-11.543-.064-1.92.37-5.69.964-8.37 1.12-5.035.44-13.37-.98-11.94-.44.447-2.74 5.355-5.11 10.906-2.37 5.55-4.71 10.28-5.21 10.5-.49.22-2.39-2.29-4.21-5.59-4.22-7.65-6.52-9.5-11.75-9.49-6.98.03-8.31.8-10.62 6.16-1.17 2.74-1.94 5.51-1.71 6.16.24.65 1.2-.69 2.13-2.97 1.06-2.58 2.53-4.38 3.88-4.74 3.48-.93 8.64-.71 10.85.48 2.2 1.17 7.14 11.22 8.32 16.91.96 4.64-.83 2.83-2.48-2.5-.68-2.2-2.58-6.14-4.22-8.75-2.74-4.37-3.31-4.75-6.95-4.75-5.86 0-7.32 1.22-8.81 7.41-1.23 5.15-1.15 6.07 1.12 13.24 2.67 8.4 4.8 10.63 4.96 5.18.06-1.83.44-4.46.85-5.83.69-2.3.84-2.14 1.96 2 2.38 8.81 1.87 8.21 6.44 7.45 2.29-.38 5-1.13 6.03-1.67zM155.2 78.34c-1.972-.707-1.455-2.28.75-2.28 1.1 0 2 .42 2 .94 0 1.28-1.236 1.883-2.75 1.34zm-1.604-8.7l-1.69-2.577h4.023c2.21 0 4.02.45 4.02 1s-.65 1-1.45 1c-.8 0-1.85.71-2.33 1.578-.75 1.35-1.14 1.2-2.57-1zM125.75 92.86c1.86-1.86 1.424-4.53-1.02-6.24-1.224-.858-2.515-1.558-2.87-1.558-.85 0-1.986 7.066-1.312 8.156.765 1.24 3.82 1.03 5.203-.355zm65.2-.72c4.04-.59 4.474-.91 4.24-3.12-.437-4.1-1.07-4.96-3.66-4.96-1.363 0-2.92-.78-3.452-1.74-.848-1.51-1.87-.87-7.952 5l-6.98 6.74 6.656-.63c3.654-.35 8.672-.93 11.15-1.29zm-72.63-2.33c1.187-4.424.687-6.79-1.62-7.67-2.312-.88-5.75 1.074-5.75 3.27 0 1.176 5 6.65 6.07 6.65.385 0 .97-1.01 1.3-2.25zm18.4-8.44c5.528-3.59 7.23-5.24 7.23-7 0-1.27-.31-2.308-.685-2.308-1.706 0-16 4.365-20.177 6.162l-4.637 1.995 3.01 1.27c1.65.7 3.62 2.01 4.37 2.92 2 2.4 2.91 2.15 10.9-3.04zm40.228-18.3c5.59-11.077 7.883-25.986 4.512-29.356-.83-.832-4.48-1.812-8.25-2.217-8.376-.896-25.87-1.134-26.657-.36-.32.316-.87 2-1.218 3.75-.537 2.68-.338 3.18 1.266 3.18 1.05 0 2.96.736 4.25 1.64 2.19 1.536 2.31 2.134 1.89 9.5l-.45 7.86h2.87c1.94 0 3.11-.64 3.6-1.978.63-1.71 1.65-.9 7.48 6 3.71 4.38 6.96 7.97 7.22 7.97.27 0 1.84-2.7 3.5-6zM162.95 52.33c-1.37-1.74-2.007-3.714-1.755-5.43.283-1.966-.15-2.934-1.606-3.584-1.98-.88-1.98-.916.18-3.07 2.6-2.602 9.71-3 12.74-.713 1.84 1.39 1.77 1.47-1.25 1.5-4.62.046-4.97 1.73-.73 3.502 3.08 1.29 3.46 1.766 2.41 3.03-.76.915-2.95 1.5-5.62 1.5-5.1 0-5.62 1.308-1.38 3.5 3.48 1.798 3.78 2.5 1.07 2.5-1.06 0-2.9-1.23-4.08-2.736zm6.507-5.765c0-.55-1.46-1.14-3.25-1.314-2.46-.23-3.25.08-3.25 1.32s.79 1.55 3.25 1.32c1.79-.18 3.25-.77 3.25-1.32zm-4.5-6.5c1.22-.788 1.096-.973-.69-.985-1.2-.002-2.47.44-2.81.99-.782 1.274 1.53 1.274 3.5 0zM148.98 56.54c1.796-3.71 1.962-4.8.926-6.048-1.68-2.024-5.462-1.442-5.354.824.044.962.157 3.55.25 5.75.09 2.2.575 4 1.076 4 .5 0 1.897-2.037 3.102-4.526zm42.788-5c1.21-2.49 2.19-5.303 2.177-6.25-.012-.95-.86.12-1.883 2.374-1.024 2.254-2.58 4.374-3.46 4.712-.94.36-1.358 1.25-1.01 2.152.945 2.466 1.834 1.83 4.175-2.99zm-1.022-7.474c2.82-5.57 2.543-8.173-1.01-9.416-1.5-.526-2.904-.76-3.12-.52-.214.24-.614 3.72-.89 7.734-.432 6.346-.286 7.26 1.12 7 .893-.164 2.648-2.323 3.9-4.798zm-40.78 1.43c0-1.042-.727-1.462-2.17-1.25-3.2.47-3.544 2.82-.41 2.82 1.68 0 2.582-.55 2.582-1.57zm-3.81-3.113c-.722-.29-1.585-.254-1.917.078-.34.34.25.57 1.31.53 1.16-.05 1.4-.28.6-.6zm3.06-1.98c-.685-.277-1.81-.277-2.5 0-.685.278-.123.505 1.25.505 1.377 0 1.94-.227 1.25-.505zM192.78 28.82c.44-2.32-2.89-3.516-14.78-5.308-9.82-1.48-24.517-1.903-29.753-.856-2.425.484-2.89 1.006-2.537 2.85.415 2.178.936 2.28 15.092 2.986 8.063.402 16.686 1.098 19.16 1.547 7.22 1.31 12.43.81 12.815-1.23zm5.086-9.31c2.462-4.176 2.655-5.598.656-4.83-2.18.836-5.907 8.383-4.14 8.383.76 0 2.33-1.6 3.484-3.557zm-10.9-1.947c0-2.475-.367-4.5-.816-4.5-.685 0-4.186 6.24-4.186 7.46 0 .353 2.293 1.12 4.25 1.424.414.062.75-1.91.75-4.385zm6.834-.48c.62-4.182-1.66-4.684-3.313-.73-2.157 5.163-1.98 6.255.727 4.467 1.24-.817 2.402-2.5 2.586-3.736zm-48.355-1.714c-.238-3.79-.723-4.85-2.516-5.52-2.02-.75-2.17-.58-1.67 1.94.87 4.34 2.56 8.26 3.56 8.26.5 0 .78-2.11.61-4.7zm6.487.32c-.04-2.63-2.5-6.04-3.783-5.24-1.68 1.03-1.95 5.51-.46 7.64 1.14 1.63 1.74 1.82 2.85.89.78-.65 1.4-2.13 1.38-3.3zm7.03 3.34c0-2.36-3.034-8.07-3.978-7.48-.56.34-1.02 2.4-1.02 4.57 0 3.54.256 3.94 2.5 3.94 1.374 0 2.5-.47 2.5-1.03zm13.806-3.72c-.356-5.55-1.827-5.62-3.435-.18-1.24 4.2-.967 4.92 1.854 4.92 1.628 0 1.846-.66 1.583-4.75zm8.148 1.51c1.214-2.16 1.24-3.05.16-5.42l-1.295-2.84-1.91 2.35c-1.97 2.43-2.36 4.78-1.28 7.59.83 2.15 2.54 1.47 4.33-1.7zm-14.988.3c1.39-2.6 1.315-7.78-.127-8.67-2.65-1.64-6.52 7.58-4.17 9.93 1.26 1.25 3.27.66 4.3-1.27zm32.433-5.83c-11.49-8.8-38.27-12.09-50.9-6.25-3.69 1.7-4.5 2.43-3.12 2.76 1.04.24 2.28-.16 2.76-.9.69-1.06 1.3-.81 2.8 1.13 1.06 1.36 2.11 2.26 2.33 2 .22-.27 1.13-1.57 2.02-2.89l1.62-2.41 1.21 2.65c1.57 3.45 3.04 3.35 5.23-.35 2.19-3.7 3.2-3.77 5-.34l1.4 2.67 1.8-2.74 1.8-2.74 1.29 3.07c1.44 3.42 2.54 3.8 4.42 1.53 1.13-1.36 1.54-1.29 3.61.66 2.23 2.1 2.43 2.12 4.26.46 1.84-1.66 1.95-1.64 2.64.52.68 2.15.79 2.17 2.05.44 1.27-1.73 1.44-1.69 3.55.68 1.46 1.63 2.91 2.31 4.19 1.97 1.93-.5 1.93-.54.08-1.97zm92.6 307.42c0-.91-.37-1.66-.84-1.66-.46 0-4.73-3.75-9.5-8.32-7.38-7.09-8.66-8.8-8.66-11.55 0-6.4 4.43-11.14 10.41-11.14 2.78 0 7.96 3.4 16.2 10.64 3.36 2.95 6.71 5.36 7.43 5.36.84 0 .54.82-.84 2.29l-2.15 2.29-6.27-5.91c-11.33-10.69-17.05-13.39-20.68-9.76-2.69 2.68-2.6 6.9.2 10.13 2.71 3.12 14.54 13.28 17 14.61 1.69.91 1.68 1.06-.25 2.8-1.82 1.64-2.03 1.66-2.03.19zm-246.61-3.17c-2.64-2.65-2.86-5.49-.47-6.28 1.01-.34 1.22.04.73 1.31-.76 1.97 1.82 5.49 4.02 5.49 2.65 0 5.35-3.9 5.35-7.75.02-9.07 4.88-16.25 11-16.25 2.64 0 9 4.88 9 6.9 0 .41-1.11 1.79-2.46 3.06l-2.46 2.32 1.17-3.09c1-2.65.9-3.39-.68-5.14-4.09-4.52-8.89-.43-10 8.51-.84 6.83-2.85 10.8-6.25 12.35-3.72 1.69-6.16 1.3-8.9-1.44zm-6.16-26.52c.37-2.49.16-2.92-1.13-2.34-.87.38-3.38.9-5.58 1.15l-4 .44 2.94-3.11c1.62-1.71 3.61-3.11 4.43-3.11 1.14 0 .99-.54-.62-2.25-2.82-3.01-1.37-5.75 3.03-5.75 3.17 0 3.17 0 .94 1.57-2.68 1.87-2.04 3.43 1.41 3.43 1.64 0 2.26.4 1.79 1.15-.44.71-.27.88.45.44.83-.51.86-1.27.12-2.66-.72-1.34-.72-1.94 0-1.94.57 0 1.04.45 1.04 1s1.13 1 2.5 1c2.79 0 3.22 1.16 1.11 2.91-.76.63-1.16 2.04-.88 3.12.3 1.13.02 1.96-.66 1.96-.65 0-.9-.45-.56-1 .34-.55.32-1.49-.06-2.09-.41-.67-1.4 0-2.55 1.75-2.61 3.96-2.37 4.61 1.36 3.8l3.25-.71-1.9 2.12c-1.05 1.17-3.01 2.12-4.37 2.12-2.17 0-2.4-.36-2.01-3.05zm262.48-7.74c-2.4-2.66-2.1-3.33.95-2.17 1.45.55 2.77.87 2.94.7.74-.74-2.97-6.76-4.16-6.76-.73 0-1.85-.96-2.48-2.13-1.1-2.06-.99-2.11 3.29-1.47 2.44.36 5.21.36 6.15 0 1.62-.62 1.62-.77.02-2.54-1.62-1.79-1.58-1.88.92-1.88 1.56 0 3.04.77 3.65 1.91.85 1.59.49 2.25-2.22 3.98-3.2 2.05-3.21 2.07-.67 2.09 1.53.01 3.73 1.23 5.44 3.01l2.88 3h-3.61c-1.99 0-4.32-.71-5.19-1.57-.86-.86-1.61-1.2-1.67-.75-.05.46-.17 1.95-.25 3.33-.19 3.16-3.57 3.85-5.96 1.21zm-2.18-6.2c-.34-.56.08-1.02.94-1.02 1.76 0 2.01.6.63 1.45-.51.32-1.21.12-1.56-.44zm3-7c-.34-.56.08-1.02.94-1.02 1.76 0 2.01.6.63 1.45-.51.32-1.21.12-1.56-.44zm-287.33-3.05c-.51-1.36-1.67-4.21-2.56-6.34-1.96-4.7-2.01-5.63-.29-5.63.73 0 1.75 1.68 2.27 3.75 1.06 4.19 2.52 4.48 8.95 1.8l3.52-1.48-1.53-3.66c-1.87-4.47-1.88-4.09.22-4.64 1.36-.35 1.78.21 1.86 2.45.18 4.61 1.51 5.17 7.35 3.11 2.86-1.01 6.02-2.6 7.04-3.54 1.76-1.63 1.9-1.57 2.93 1.4.6 1.71 1.08 3.17 1.08 3.24 0 .07-1.01.22-2.25.33-3.39.31-26.08 9.15-26.91 10.49-.47.76-1.05.3-1.66-1.3zm304.82-17.19c-7.42-.99-14.73-1.64-16.25-1.46-2.8.34-3.41-.73-1.84-3.21.74-1.17 2.43-1.2 10.57-.17 5.33.67 9.89 1.01 10.14.77.25-.25-3.7-3.3-8.78-6.78-9.16-6.28-9.21-6.33-6.28-7.15 1.62-.46 6.45-1.11 10.73-1.46 4.28-.35 7.99-.96 8.23-1.36.25-.4-3.65-2.19-8.65-3.98-7.44-2.66-9.25-3-9.96-1.88-.71 1.13-.87 1.11-.87-.13 0-4.06 1.43-3.9 16.72 1.81 8.37 3.13 15.22 5.97 15.23 6.31.01.34-4.37 1.16-9.73 1.82-12.09 1.47-15.56 2.03-16.13 2.61-.54.54-1.62-.29 10.39 7.9 11.38 7.75 10.98 7.45 10.42 7.83-.23.15-6.49-.52-13.91-1.51zM6.45 243.51c-.36-1.622-.85-3.574-1.09-4.34-.335-1.054-.12-1.124.89-.29.987.823 4.52.35 13.77-1.844 6.845-1.623 12.75-2.956 13.127-2.962 1.605-.028 1.834-4.272.387-7.173-1.957-3.92-1.952-4.06.146-3.65 1.23.24 2.173 2.36 3.36 7.58l1.64 7.25-2.61.02c-4.714.03-27.3 5.68-28.144 7.05-.587.95-1.015.49-1.48-1.61zm1.785-23.35c-5.17-2.423-8.275-7.174-8.232-12.6C.07 199.33 5.18 194.787 15 194.233c11.146-.63 18.18 4.525 18.373 13.465.23 10.598-14.03 17.668-25.138 12.464zm17.538-5.5c3.51-1.814 4.728-3.315 5.578-6.87.89-3.71-.82-6.597-4.93-8.313-6.52-2.73-16.06-1.3-21.42 3.21-3.76 3.16-4.25 8.96-1 11.9 3.85 3.48 15.11 3.515 21.78.067zm314.19-3.6c0-.6-4.086-1-10.25-1.004-11.92-.006-16.505-1.042-19.71-4.452-3.356-3.574-3.195-9.84.345-13.383 2.557-2.56 3.13-2.67 15.386-2.97 10.345-.25 12.966-.61 13.98-1.94 1.05-1.37 1.24-.83 1.172 3.31-.043 2.72-.306 4.38-.583 3.69-.654-1.61-23.177-1.73-26.68-.14-3.412 1.56-4.927 5.21-3.478 8.39 1.54 3.38 6.11 4.49 18.52 4.5 8.663.01 10.353-.26 11.22-1.74.808-1.39 1.025-.87 1.05 2.5.016 2.34-.196 4.25-.47 4.25-.276 0-.5-.45-.5-1zM31.31 187.613c-1.293-1.403-26.803-5.692-28.955-4.866-1.978.76-.762-8.37 1.556-11.68 2.89-4.12 8.58-3.953 13.76.403l2.86 2.4L28.5 170c4.384-2.127 8.042-3.88 8.13-3.904.084-.02-.08.87-.374 1.98-.675 2.585-4.575 5.302-10.285 7.17-3.23 1.06-4.58 2.07-4.81 3.61-.37 2.556 2.7 3.616 8.81 3.034 4.24-.403 4.59.118 3.16 4.82-.51 1.688-.89 1.88-1.8.9zm-12.35-9.99c0-3.16-3.46-5.555-8.03-5.555-4.377 0-7.313 1.967-6.816 4.566.387 2.025 3.82 3.047 11.097 3.302 3.35.117 3.75-.132 3.75-2.312zm287.7 1.397c-.78-2.99.234-4.72 5.736-9.79 4.54-4.19 6.006-8.17 3.008-8.17-4.147 0-10.444 2.33-10.458 3.87-.013 1.42-.142 1.433-.985.13-1.21-1.888-1.3-7.31-.1-6.57 1.62 1 28.55-4.496 29.77-6.08.93-1.2 1.3-.215 1.86 4.96.84 7.79.24 10.023-3.08 11.536-3.32 1.515-5.77 1.453-9.85-.248l-3.35-1.4-4.99 5.15c-2.74 2.83-5.43 5.987-5.97 7.013-.92 1.75-1.02 1.72-1.57-.41zm24.907-14.43c1.46-.96 2.394-2.54 2.394-4.05 0-2.88-.98-3.02-9.33-1.34-6.12 1.23-7.29 3.1-3.99 6.39 1.96 1.956 7.14 1.48 10.93-1.01zM36.41 158.13c-1.633-1.6-25.494-9.29-27.336-8.808-1.63.427-1.613-.01.27-6.4 2.02-6.86 2.804-7.678 5.617-5.86 1.32.848 1.31.97-.08.984-1.39.013-3.91 3.78-3.91 5.855 0 .41 2.51 1.6 5.58 2.64 6.1 2.08 7.38 1.52 7.41-3.23.02-2.28 2.36-3.12 3.52-1.25.34.55.19 1-.34 1s-1.41 1.31-1.97 2.9c-.99 2.85-.91 2.94 4.49 5 3.03 1.16 6.15 2.11 6.94 2.11 1.71 0 3.7-4.7 3.05-7.2-.38-1.45-.13-1.58 1.42-.75 1.83.98 1.82 1.16-.22 6.74-2.43 6.62-3.09 7.58-4.4 6.3zm264.464-11.348c-9.672-6.518-7.417-18.783 4.47-24.318 6.04-2.812 10.503-3.025 15.334-.732 6.896 3.272 9.394 12.356 5.26 19.134-4.39 7.2-18.29 10.48-25.064 5.915zm11.37-2.158c11.76-4.195 16.875-13.49 10.566-19.2-2.816-2.547-9.062-2.015-15.715 1.34-6.6 3.33-9.286 6.688-9.43 11.79-.19 6.705 5.804 9.2 14.58 6.07zm-269.89-4.647c-.49-.777-1.793-1.905-2.893-2.506l-7.5-4.09c-3.02-1.65-7.86-4.27-10.75-5.82-2.88-1.54-5.25-3.08-5.25-3.41 0-.33 6.75-1.67 15-2.98s15-2.68 15-3.05c0-.37-4.65-2.93-10.33-5.68-9.41-4.57-10.26-5.21-9.53-7.18l.8-2.16 2.3 2.24c1.26 1.24 7.59 5.14 14.07 8.69 8.04 4.4 11.34 6.69 10.39 7.22-.76.43-7.3 1.8-14.53 3.04-7.23 1.25-13.14 2.61-13.14 3.03 0 1.19 17.98 9.91 19.05 9.25 1.4-.86 1.17.86-.4 3-1.13 1.55-1.51 1.62-2.25.44zm243.226-18.37c-.92-1.404-1.19-2.54-.607-2.54 1.362 0 25.282-14.86 26.13-16.233.372-.6 1.15-.093 1.843 1.203 1.445 2.7 1.99 2.2-10.985 10-5.77 3.47-11.44 7.166-12.6 8.21-2.08 1.877-2.13 1.87-3.77-.64zM62.96 108.73c0-1.51-5.426-6.75-15-14.477l-6.5-5.247-2.25 2.588c-1.236 1.424-2.25 3.335-2.25 4.247 0 1.53-.134 1.53-1.703-.04-1.515-1.51-1.536-1.84-.19-2.96 1.18-.98 11.366-12.85 12.558-14.63.138-.2.95-.1 1.807.23 1.23.47.798 1.29-2.05 3.91l-3.608 3.31 10.344 8.54c12.646 10.45 12.543 10.38 14.597 8.74.917-.73.147.58-1.71 2.92-3.692 4.65-4.044 4.9-4.044 2.92zm214.06-.87c-1.34-.71-4.392-3.687-6.78-6.616l-4.34-5.323 3.78-2.55c4.412-2.97 18.394-15.17 19.622-17.11 1.055-1.67 3.34.25 8.244 6.93 5.783 7.88 4.3 16.06-4.072 22.44-4.256 3.25-12.443 4.36-16.453 2.24zm9.483-2.67c10.343-4.7 14.385-17.352 7.526-23.56-1.77-1.598-2.3-1.312-10.78 5.803-4.91 4.117-9.51 8.188-10.22 9.048-1.96 2.36-.46 6.39 3.2 8.62 3.95 2.41 5.14 2.42 10.26.1zM74.706 92.316c-.927-1.514-5.653-6.926-10.5-12.028L55.39 71.01l2.286-2.148c1.65-1.55 2.285-1.75 2.285-.715 0 1.365 13.44 17.042 18.49 21.566 2.28 2.044 2.31 2.228.63 3.75-2.31 2.09-2.39 2.07-4.36-1.15zm9.94-7.154c.324-1.238-2.2-6.165-7.202-14.06-4.235-6.684-7.454-12.4-7.153-12.7.3-.3 6.66 1.59 14.13 4.203 7.48 2.612 13.79 4.548 14.04 4.3.71-.702-10.42-16.877-12.04-17.496-1.73-.67-1.09-1.94 1.73-3.44 1.39-.74 1.85-.76 1.41-.05-.36.58 3.14 7.04 7.77 14.35 4.63 7.31 8.12 13.41 7.75 13.55-.37.14-7.07-1.92-14.88-4.59-7.82-2.67-14.21-4.69-14.21-4.49 0 .81 11.26 16.88 12.52 17.88 1.1.86.81 1.4-1.48 2.75-2.73 1.61-2.83 1.61-2.35-.22zm168.703.923c-2.98-1.205-6.39-5.848-6.39-8.705 0-3.27 2.23-7.36 8.57-15.677 2.93-3.852 5.47-7.9 5.63-8.995.28-1.88.46-1.844 3.29.65 1.65 1.455 2.48 2.66 1.84 2.676-1.22.033-9.92 10.644-13.35 16.27-2.87 4.695-2.63 9.302.58 11.404 1.94 1.27 3.23 1.46 5.22.76 3.12-1.098 17.2-17.988 17.2-20.63 0-1.715.14-1.725 2.53-.16 2.43 1.594 2.46 1.708.63 2.985-1.05.73-4.5 4.723-7.68 8.873-7.89 10.293-12.33 12.883-18.1 10.55zM227.12 70.19c-1.042-.66-.003-3.622 4.75-13.53 3.346-6.976 6.084-13.3 6.084-14.055 0-.755-1.785-1.973-3.968-2.706-2.684-.91-3.723-1.73-3.21-2.56.553-.89 3.253-.02 10.022 3.25 5.096 2.46 9.648 4.47 10.117 4.47.467 0 .615.9.327 2-.53 2.02-2.29 2.81-2.29 1.02 0-.98-5.897-4.46-6.514-3.84-.96.96-11.484 24.27-11.484 25.44 0 1.54-1.816 1.77-3.834.5zM112.17 52.556c-.16-9.62-.08-17.49.176-17.49.257 0 4.487 5.06 9.4 11.25 4.914 6.186 9.908 12.116 11.098 13.175 1.64 1.46 1.857 2.13.89 2.74-2.58 1.64-4.462.74-7.534-3.62l-3.146-4.46-3.796 1.31c-3.346 1.15-3.833 1.74-4.105 4.92-.17 1.99.174 4.52.763 5.62.87 1.63.704 2.2-.876 3.05-1.07.58-2.09 1.04-2.263 1.04-.174 0-.447-7.88-.607-17.5zm8.79-.285c0-1.17-5.287-8.2-6.17-8.2-.493 0-.694 1.24-.445 2.75.248 1.51.49 3.97.534 5.45.07 2.56.24 2.65 3.08 1.65 1.65-.57 3-1.31 3-1.64zm82.97 8.97c-1.958-1.58-2.113-2.2-1.19-4.75l1.063-2.92.08 2.63c.1 3.37 2.22 5.1 5.75 4.7 4.426-.51 5.293-4.55 2.373-11.08-3.39-7.57-3.72-12.61-1.054-16 3.456-4.39 12.036-3.28 11.987 1.55l-.03 2.22-1.8-2.33c-1.31-1.7-2.59-2.24-4.73-2-2.48.29-2.98.83-3.24 3.51-.19 1.96.71 5.18 2.36 8.43 3.15 6.22 2.92 11.71-.65 15.5-2.75 2.93-7.72 3.19-10.94.58z"/>
</svg>
