<svg enable-background="new 0 0 80 80" height="316.227766" viewBox="0 0 80 80" width="316.227766" xmlns="http://www.w3.org/2000/svg"><g fill="#25506b"><path d="m8.123 54.866-1.354-3.27.223-.093c.13.398.333.531.609.4l2.714-1.125c.273-.095.323-.332.149-.712l.222-.093.856 2.07-.222.092c-.151-.406-.353-.54-.608-.399l-2.695 1.114c-.279.082-.346.257-.2.526.264.552.841.773 1.735.663l.101.246z"/><path d="m11.293 57.029.838-1.14-1.39.207zm-1.911.178-.859-1.451.208-.123c.199.273.558.36 1.077.258l3.521-.486.159.269-2.343 3.235c-.194.208-.214.444-.058.706l-.208.122-1.128-1.907.207-.123.123.207c.117.23.241.296.371.201.028-.017.068-.059.121-.127.028-.017.048-.029.062-.037l.442-.625-.687-1.162-.513.08c-.102-.014-.229.024-.381.113-.166.098-.188.251-.065.459l.159.269z"/><path d="m14.424 57.829.187-.153.947 1.157-.925 3.437.015.019 1.68-1.374c.231-.148.218-.418-.04-.81l.187-.152.977 1.194-.187.152c-.292-.28-.533-.321-.724-.124l-2.724 2.231-.366-.448 1.041-3.906-.016-.019-2.034 1.665c-.267.156-.219.429.141.819l-.186.152-1.054-1.287.186-.153c.24.343.473.412.699.207l2.276-1.863c.233-.17.207-.418-.08-.744z"/><path d="m18.409 65.563-1.129 1.188-2.426-2.239.213-.23 4.096-1.169-.301-.278c-.67-.576-1.28-.602-1.827-.08l-.195-.18 1.032-1.047 2.283 2.108-.294.318-3.961 1.13c.807.831 1.577.931 2.314.299z"/><path d="m20.822 66.487 1.131.78.697-1.012c.177-.228.109-.441-.204-.638l.137-.198 1.786 1.231-.137.199c-.348-.259-.591-.261-.728-.005l-1.669 2.421c-.2.233-.112.46.264.679l-.137.199-1.786-1.231.136-.199c.286.236.509.224.669-.036l.821-1.19-1.131-.78-.82 1.191c-.2.233-.132.446.204.638l-.137.198-1.766-1.216.137-.199c.312.254.549.251.709-.009l1.668-2.421c.177-.229.096-.451-.244-.666l.136-.198 1.766 1.218-.136.198c-.309-.232-.531-.22-.669.036z"/><path d="m24.856 69.256c-.568 1.153-.537 1.87.092 2.153.587.299 1.157-.131 1.712-1.291.546-1.144.523-1.858-.071-2.143-.623-.297-1.2.129-1.733 1.281zm-1.043-.499c.684-1.132 1.65-1.48 2.901-1.042 1.097.684 1.426 1.652.989 2.902-.699 1.124-1.652 1.461-2.859 1.009-1.139-.669-1.483-1.626-1.031-2.869z"/><path d="m28.97 68.84 2.076.627-.07.231c-.425-.146-.666-.076-.718.211l-.732 2.422c-.133.497.063.849.587 1.058.661.2 1.102-.037 1.321-.708l.648-2.145c.109-.253-.059-.472-.507-.656l.07-.231 1.499.452-.069.231c-.419-.06-.65.038-.693.294l-.634 2.1c-.26.861-.905 1.136-1.936.826-.995-.318-1.389-.847-1.181-1.591l.704-2.33c.099-.273-.046-.458-.435-.559z"/><path d="m37.709 70.777 2.166.009-.001.24c-.449-.018-.658.119-.627.407l-.009 2.528c.014.514.302.796.864.846.69.003 1.044-.349 1.063-1.056l.009-2.238c.033-.273-.191-.435-.672-.484l.001-.241 1.565.006-.001.24c-.418.063-.611.223-.58.479l-.009 2.191c-.004.899-.543 1.346-1.618 1.342-1.043-.02-1.572-.415-1.584-1.185l.009-2.432c.017-.289-.175-.427-.577-.412z"/><path d="m42.339 71.018-.034-.238 1.477-.216 2.467 2.562.024-.003-.313-2.145c-.008-.275-.246-.402-.713-.383l-.036-.238 1.526-.223.036.238c-.391.105-.55.291-.479.556l.507 3.481-.572.083-2.809-2.901-.024.003.379 2.599c-.004.308.255.409.774.301l.035.238-1.645.24-.034-.239c.417-.029.596-.192.536-.492l-.424-2.908c-.025-.288-.251-.393-.678-.315z"/><path d="m50.483 73.457-2.158.596-.064-.232c.411-.081.568-.265.471-.555l-.781-2.831c-.062-.283-.292-.361-.69-.234l-.064-.232 2.159-.596.064.232c-.422.1-.579.284-.471.554l.782 2.832c.051.303.28.381.689.234z"/><path d="m49.873 69.497-.091-.223 1.9-.768.09.224c-.372.151-.513.294-.424.431-.078-.02.49.677 1.703 2.093l.022-.009c-.001-.086-.004-.223-.01-.412-.047-1.661-.086-2.4-.115-2.215-.084-.208-.283-.249-.596-.123l-.09-.224 1.296-.523.09.223c-.265.159-.385.355-.36.587l.116 3.827-.469.19-2.408-2.874c-.195-.268-.413-.336-.654-.204z"/><path d="m56.946 65.801.8 1.291-.229.132c-.597-.583-1.219-.697-1.867-.342-.328.171-.41.366-.246.587l.602 1.044c.483-.224.641-.593.473-1.108l.209-.12.855 1.481-.209.12c-.354-.389-.753-.437-1.196-.144l.711 1.231c.117.267.326.293.631.082.673-.408.898-1.048.673-1.919l.23-.132.765 1.422-3.381 1.951-.12-.208c.377-.181.483-.4.317-.656l-1.47-2.546c-.131-.259-.373-.277-.727-.054l-.12-.209z"/><path d="m59.229 64.924.823 1.04c.612-.443.721-.888.327-1.335-.355-.395-.705-.477-1.053-.243-.227.179-.259.359-.097.538zm3.461.643.19-.149c.399.504.365.94-.101 1.31-.469.392-.918.317-1.347-.226-.295-.32-.503-.493-.626-.519-.143-.051-.344.006-.603.17l.793 1.003c.192.319.453.328.787.023l.149.189-1.72 1.362-.15-.19c.348-.234.42-.466.218-.695l-1.825-2.307c-.166-.238-.409-.219-.727.053l-.149-.189 1.701-1.346c.817-.626 1.461-.654 1.932-.085.407.539.226 1.114-.544 1.722l.015.018c.481-.299.954-.284 1.419.045.452.339.687.44.702.305.098-.057.06-.222-.114-.494z"/><path d="m64.282 65.368-1.181-1.134.184-.191c.849.482 1.502.486 1.958.011.355-.371.371-.723.047-1.057-.185-.178-.599-.107-1.239.213-.854.449-1.471.49-1.854.123-.603-.623-.605-1.293-.007-2.01.2-.208.453-.355.757-.441.101-.036.169-.072.202-.106.056-.036.054-.149-.007-.341l.167-.174 1.06 1.017-.167.174c-.746-.382-1.325-.382-1.737.002-.299.358-.321.67-.066.938.209.2.611.141 1.206-.178.887-.484 1.545-.52 1.973-.109.558.625.538 1.295-.061 2.011-.245.255-.524.465-.839.63-.124.036-.197.066-.219.089-.056.058-.059.178-.01.359z"/><path d="m68.685 60.275-1.362 1.782-.192-.146c.279-.312.292-.555.04-.727l-2.338-1.785c-.219-.189-.451-.112-.692.23l-.191-.147 1.361-1.782.192.147c-.276.335-.29.578-.04.728l2.337 1.785c.224.21.454.133.692-.231z"/><path d="m65.68 57.257 2.021-3.42 1.298.738-.147.249c-.789-.242-1.339-.101-1.649.424l2.84 1.678c.238.197.47.073.696-.372l.207.123-1.226 2.073-.207-.123c.28-.413.282-.682.002-.81l-2.84-1.678c-.319.539-.177 1.089.424 1.649l-.147.249z"/><path d="m68.044 53.683-.222-.094.793-1.887.222.093c-.131.311-.134.484-.009.518.044.019.135.031.272.036.036-.002.064-.007.085-.017l1.385-.123-.842-.981c-.108-.115-.199-.189-.273-.219-.155-.047-.304.081-.45.385l-.222-.093.607-1.444.222.094c-.105.374-.059.638.139.789l1.319 1.521 1.021.429c.263.162.475.009.638-.463l.223.093-.915 2.176-.222-.093c.223-.446.187-.714-.107-.803l-1.043-.438-1.73.138c-.525.005-.822.133-.891.383z"/><g clip-rule="evenodd" fill-rule="evenodd"><path d="m7.377 41.182c.645 0 1.218-.501 1.218-1.146s-.573-1.217-1.218-1.217c-.644 0-1.217.573-1.217 1.217s.572 1.146 1.217 1.146z"/><path d="m72.551 41.182c.645 0 1.146-.501 1.146-1.146s-.502-1.217-1.146-1.217c-.645 0-1.217.573-1.217 1.217s.573 1.146 1.217 1.146z"/><path d="m40 0c22.088 0 40 17.912 40 40s-17.912 40-40 40-40-17.912-40-40 17.912-40 40-40zm0 1.085c21.489 0 38.915 17.426 38.915 38.915 0 21.488-17.426 38.915-38.915 38.915s-38.915-17.427-38.915-38.915c0-21.489 17.426-38.915 38.915-38.915z"/><path d="m40 12.761c15.041 0 27.239 12.198 27.239 27.24 0 15.041-12.198 27.239-27.239 27.239s-27.239-12.198-27.239-27.239c0-15.042 12.198-27.24 27.239-27.24zm0 .739c14.633 0 26.5 11.867 26.5 26.5s-11.867 26.5-26.5 26.5-26.5-11.867-26.5-26.5 11.867-26.5 26.5-26.5z"/><path d="m62.853 37.828h-2.145v2.196h2.145zm-22.981-17.029h.128.128v2.193l.143.442v1.474l.456.545v2.462h.619v4.616h.683v-.579h.727v2.689h9.936v-1.548h.557v.463h1.812v-.485h.556v1.57h7.823v10.479h-46.881v-10.478h7.824v-1.57h.555l.001.485h1.811v-.463h.557v1.548h9.936v-2.689h.727v.579h.683v-4.616h.619v-2.462l.456-.545v-1.474l.143-.442c.001-1.044.001-1.366.001-2.194zm22.981 19.422h-2.854v1.787h2.854zm0 1.985h-3.317v1.438h1.127v-1.079h.59v1.079h.473v.856h1.127zm-7.737-4.378h2.463v2.196h-2.463zm0 2.393h3.276v1.787h-3.276zm0 1.985h3.808v1.438h-1.294v-1.079h-.677v1.079h-.362v.856h-1.476v-2.294zm0-6.44h2.463v1.898h-2.463zm5.046.02h-2.058v4.055h.644v1.715h.901v-1.715h.513zm-5.081-1.719h-1.83v.589h1.83zm-.514 1.399h-1.464v9.034h1.464zm-12.057 2.032h-.683v1.067h.683zm10.023 0h-.608v1.29h-.76v-1.29h-.683v1.29c-.253 0-.506 0-.76 0v-1.29h-.682v1.29c-.253 0-.507 0-.76 0v-1.29h-.683v1.29c-.253 0-.507 0-.76 0v-1.29h-.683v1.29c-.253 0-.507 0-.76 0v-1.29h-.683v1.29c-.254 0-.507 0-.76 0v-1.29h-.681v1.067h.207v.564h9.057v-1.631zm-1.146 1.867h-1.104v1.974h1.104zm-1.284 0h-1.103v1.974h1.103zm-1.283 0h-1.132v1.974h1.132zm3.716 0h-.953v1.974h.953zm0 2.155h-8.319v2.969h3.092v-2.496h.581v2.496h.715v-2.496h.58v2.496h.715v-2.496h.581v2.496h.715v-2.496h.581v2.496h.759zm10.317-5.754h-2.145v1.898h2.145zm-22.484 2.799v-1.067h.698v1.067zm-23.222-.737h2.145v2.196h-2.145zm0 2.393h2.854v1.787h-2.854zm0 1.985h3.317v1.438h-1.127v-1.079h-.589v1.079h-.473v.856h-1.127v-2.294zm7.737-4.378h-2.463v2.196h2.463zm0 2.393h-3.277v1.787h3.277zm0 1.985h-3.808v1.438h1.294v-1.079h.677v1.079h.362v.856h1.476v-2.294zm0-6.44h-2.463v1.898h2.463zm-5.046.02h2.059v4.055h-.644v1.715h-.901v-1.715h-.514zm5.081-1.719h1.83v.589h-1.83zm.514 1.399h1.464v9.034h-1.464zm12.057 2.032h.682v1.067h-.682zm-10.023 0h.608v1.29h.76v-1.29h.683v1.29h.76v-1.29h.683v1.29h.76v-1.29h.683v1.29h.76v-1.29h.683v1.29h.76v-1.29h.683v1.29h.76v-1.29h.683v1.067h-.207v.564h-9.057v-1.631zm1.146 1.867h1.104v1.974h-1.104zm1.284 0h1.103v1.974h-1.104v-1.974zm1.283 0h1.132v1.974h-1.132zm-3.716 0h.953v1.974h-.953zm0 2.155h8.319v2.969h-3.092v-2.496h-.581v2.496h-.715v-2.496h-.581v2.496h-.715v-2.496h-.58v2.496h-.715v-2.496h-.581v2.496h-.759zm-10.317-5.754h2.145v1.898h-2.145zm22.484 2.799v-1.067h-.698v1.067zm.796-10.626v-2.1l-.427-.281-.428.281v2.1zm.388 4.602v-3.96h-1.631v3.96zm1.24 2.101v-1.407h-4.11v1.407zm-2.055.943c.203 0 .369.171.369.38v.113h.703v-.113c0-.208.166-.38.369-.38.203 0 .369.171.369.38v.113h.704v-.113c0-.208.166-.38.369-.38.203 0 .369.171.369.38v.113h.704v-.113c0-.208.166-.38.369-.38.203 0 .369.171.369.38v.113h.704v-.113c0-.208.166-.38.369-.38.203 0 .369.171.369.38v.113h.704v-.113c0-.208.166-.38.369-.38.203 0 .369.171.369.38v.113h.703v-.113c0-.208.166-.38.369-.38.203 0 .369.171.369.38v.113h.704v-.113c0-.208.166-.38.369-.38.203 0 .369.171.369.38v.113h.703v-.113c0-.208.166-.38.369-.38.203 0 .369.171.369.38v.113h.634v-.886h-25.069v.886h.633v-.113c0-.209.166-.38.369-.38.203 0 .369.171.369.38v.113h.704v-.113c0-.209.166-.38.369-.38.203 0 .369.171.369.38v.113h.704v-.113c0-.209.166-.38.369-.38.203 0 .369.171.369.38v.113h.703v-.113c0-.209.166-.38.369-.38.203 0 .369.171.369.38v.113h.704v-.113c0-.209.166-.38.369-.38.203 0 .369.171.369.38v.113h.703v-.113c0-.209.166-.38.369-.38.203 0 .369.171.369.38v.113h.704v-.113c0-.209.166-.38.369-.38.203 0 .369.171.369.38v.113h.704v-.113c0-.209.166-.38.369-.38.203 0 .369.171.369.38v.113h.704v-.113c-.003-.209.163-.38.366-.38zm12.533 1.724v-1.058h-.633v.751h-.738v-.751h-.703v.751c-.246 0-.492 0-.738 0v-.751h-.704v.751c-.246 0-.492 0-.738 0v-.751h-.703v.751c-.246 0-.492 0-.738 0v-.751h-.704v.751c-.246 0-.492 0-.738 0v-.751h-.704v.751c-.246 0-.492 0-.738 0v-.751h-.704v.751c-.246 0-.492 0-.738 0v-.751h-.702v.751c-.246 0-.492 0-.738 0v-.751h-.703v.751h-.738v-.751h-.704v.751c-.246 0-.492 0-.738 0v-.751h-.704v.751c-.246 0-.492 0-.738 0v-.751h-.704v.751c-.246 0-.492 0-.738 0v-.751h-.703v.751c-.246 0-.492 0-.738 0v-.751h-.704v.751c-.246 0-.492 0-.738 0v-.751h-.703v.751c-.246 0-.492 0-.738 0v-.751h-.704v.751c-.246 0-.492 0-.738 0v-.751h-.704v.751h-.735v-.751h-.634v1.058zm-10.08 1.914 1.766 1.268v.848h3.274v-1.974h-4.228v-.591h-6.531v.591h-4.228v1.974h3.274v-.848l1.766-1.268zm-1.679 1.074c.677 0 1.231.588 1.231 1.305v2.887h.631v-3.986l-.509-.526h-4.257l-.509.526v3.986h.631v-2.887c0-.718.554-1.305 1.231-1.305zm.321 1.331v2.861h.422v-3.083c0-.41-.326-.746-.725-.746h-1.584c-.399 0-.725.336-.725.746v3.083h.422v-2.861zm-.399 2.861v-2.067c0-.073-.112-.132-.249-.132h-.894c-.137 0-.249.06-.249.132v2.067zm-3.945 1.963h6.499v.574h-6.499zm-1.065.861h8.628v.575h-8.628zm2.237-1.718h4.154v.575h-4.154z"/></g><path d="m32.751 55.131v-.886c.409-.165.801-.382 1.178-.651h.95v4.456h-1.019v-3.49c-.345.232-.714.423-1.109.571zm3.451 1.824h1.03c.059.356.226.539.499.547.537-.002.772-.476.705-1.424-.128.105-.261.177-.398.217-.132.042-.304.062-.516.06-.845-.079-1.312-.525-1.402-1.339.066-.944.624-1.45 1.674-1.519 1.13-.002 1.695.659 1.694 1.983.065 1.803-.516 2.69-1.744 2.661-1.014.011-1.528-.384-1.542-1.186zm.967-2.003c.009.501.228.754.658.761.393-.009.595-.262.609-.761-.021-.526-.223-.797-.609-.811-.423.013-.643.283-.658.811zm5.181.875c.005-1.106-.197-1.667-.605-1.686-.408.019-.609.58-.602 1.686-.007 1.1.194 1.66.602 1.675.407-.015.61-.575.605-1.675zm1.049 0c-.029 1.522-.587 2.293-1.674 2.314-1.058-.024-1.602-.795-1.63-2.314.03-1.528.575-2.305 1.63-2.33 1.085.022 1.644.799 1.674 2.33zm.56 1.128h1.03c.059.356.226.539.499.547.537-.002.772-.476.704-1.424-.128.105-.261.177-.398.217-.132.042-.303.062-.516.06-.845-.079-1.312-.525-1.402-1.339.067-.944.624-1.45 1.675-1.519 1.13-.002 1.695.659 1.694 1.983.066 1.803-.516 2.69-1.743 2.661-1.016.011-1.53-.384-1.543-1.186zm.966-2.003c.009.501.228.754.658.761.393-.009.595-.262.608-.761-.02-.526-.223-.797-.608-.811-.423.013-.642.283-.658.811z"/><path clip-rule="evenodd" d="m25.67 9.884c-.022-.043.112-.072.2-.112.034-.016.11-.05.13-.051.071-.005.094-.008.249.044s.26.094.337.052c.077-.041.156-.08.17-.11.015-.029.019-.104.035-.179.016-.076.054-.143.049-.237s-.017-.173-.004-.219.099-.277.153-.319.343-.2.707-.246c0 0 .124.022.154.11s.132.341.154.376.042.066.127.077.184.005.247-.139c.063-.143.163-.343.202-.452.04-.109.068-.242.082-.333s.002-.25.05-.33c.048-.079.105-.162.269-.2.164-.037.268-.058.342-.07s.163.009.163.009.075.039.105.127.053.185.075.209c.022.023.225.189.418.082 0 0 .084-.039.105-.067.021-.027.067-.111.101-.28s.034-.277.063-.398c.028-.121.058-.384.133-.539s.129-.208.175-.281c.045-.072.185-.245.295-.291.259-.108.428-.012.707.043.119.024.219.068.253.103.033.035.053.066.039.095-.015.03-.024.386-.128.61 0 0-.012.12-.004.172.008.053.061.142.061.216.001.073.043.201.094.297.009.017-.007.053.002.108.012.071.052.17.101.254.049.083.098.202.146.283.023.039.069.059.095.099.034.052.047.126.063.183 0 0 .01.056.007.104-.004.062-.026.128-.017.186.01.071-.002.128.048.186.023.026.103.044.145.08.142.122.393.507.392.689-.001.128-.186.31-.22.403-.034.094-.14.448-.232.513s-.291.114-.363.081c-.071-.033-.177-.14-.177-.14l-.206-.059-.177.05s-.025-.078-.001-.145.032-.17.026-.324c-.005-.153-.134-.572-.233-.781 0 0-.029-.276-.087-.471s-.223-.474-.241-.633c-.019-.159-.005-.343-.008-.397s-.013-.361-.091-.503-.154-.162-.213-.145-.093.133-.118.223c-.025.089-.148.325-.067.666 0 0 .032.163.104.174s.174.063.2.118.092.269.095.322c.003.055-.002.257-.066.309-.065.052-.177.05-.303.02s-.227.04-.297-.039-.187-.09-.228-.249-.041-.159-.047-.267-.085-.228-.128-.274c-.044-.046-.108-.016-.108-.016s-.001.235-.039.296c-.038.063.002.266.03.42s.025.267.03.397c.006.131.147.41.191.478.044.069.307.536.261.724-.045.188-.054.36-.107.484s-.407.224-.407.224-.206-.059-.299-.283c-.093-.223-.224-.406-.243-.542s-.053-.398-.068-.525-.017-.392-.009-.518.044-.31.033-.405-.033-.284-.12-.255c0 0-.096.056-.124.258s-.058.35-.047.445c.011.094-.116.299-.251.295 0 0-.144.001-.222.049s-.037.229-.021.31c.016.082.255.782.268.999s-.159.942-.285 1.101c0 0-.221.193-.336.28s-.235.021-.235.021-.33-.135-.402-.168c-.071-.033-.095-.156-.183-.249-.088-.092-.059-.15-.013-.217.047-.067.232-.242.232-.242s.281-.588.239-.89c-.042-.303-.021-.758-.13-.919-.109-.16-.21-.371-.337-.357-.102.012-.171.041-.227.098-.025.03-.054.058-.071.1-.003.009-.007.017-.007.026.003.083-.057.163-.057.163s.027.144.02.224c-.006.081.053.265.127.375.053.079.121.205.109.297-.005.036-.056.066-.074.087-.201.232-.176.557-.545.333-.124-.075-.272-.106-.272-.106s-.075-.032-.21-.258c-.246-.412.039-.237-.005-.465-.012-.063.005-.179-.028-.267-.015-.04-.069-.092-.09-.1-.067-.024-.149-.035-.18-.095z" fill-rule="evenodd"/><path clip-rule="evenodd" d="m63.29 21.645c.116.01.369.023.56.042s.423.065.623.276c0 0-.13.257-.16.366s-.055.252-.354.456c-.3.204-.278.157-.278.157s-.124.01-.44-.196c-.316-.207-.417-.299-.578-.426-.161-.128-.286-.316-.286-.316-.04.209.012.159.08.351.032.09.269.425.335.536s.09.222.101.345c.01.124.002.466.133.661 0 0 .26.26.376.27s.384-.017.384-.017.574.015.815-.293.236-.384.366-.627.275-.575.475-.604c0 0 .245.048.348.044.104-.003.25-.011.298-.044.028-.019.111-.094.138-.171.029-.084-.016-.117-.034-.159-.043-.102.068-.162.14-.324 0 0-.061-.193-.161-.299-.1-.105-.173-.196-.452-.265s-.541-.234-.962-.395c-.42-.162-.957-.333-1.206-.483 0 0-.3-.063-.481-.198-.187-.139-.248-.436-.511-.356-.062.019-.05.088-.05.088s-.043.321.007.5c.093.334-.066.725.312.906.179.044.346.165.462.175zm4.481-4.476s-.532.592-.677.73c-.146.138-.707.699-.776.78-.07.08-.142.265-.227.39-.086.125-.123.191-.119.244s.103.063.297.068c.094.002.172.053.221.058.021.002.032-.007.054 0l.221.06s.105.018.241.043c.094.018.198.032.257.028.056-.004.073.01.125.061.149.145.174.43.174.43.002.039-.059.085 0 .133.04.032.107-.057.188-.046.055.007.115.082.181.146.133.13.122.192.118.322-.002.074-.023.143-.063.19-.059.07-.14.066-.218.076-.088.012-.17.033-.216.024-.086-.017-.25-.062-.327-.115-.025-.017-.102-.082-.202-.147-.128-.084-.295-.176-.468-.269-.111-.059-.241-.095-.334-.138-.349-.161-1.01-.59-1.138-.651s-.505-.295-.505-.295c-.166-.011-.254.297-.27.383-.017.086-.02.201-.029.266s.082.19.082.19.518.339.632.399c.114.061.752.244.752.244.181-.008.332-.015.467.02.259.066.425.219.501.23.115.017.52.028.52.028s.173.019.208.056.061.139.067.204-.163.169-.264.166-.452-.113-.452-.113-.201-.063-.173-.019.422.549.464.594c.131.138.136.16.402.223.244.05.261-.022.335-.121.075-.1.225-.58.22-.688-.008-.191-.032-.267.081-.315 0 0 .184.149.226.193.134.142.29.046.364-.091.132-.246-.076-.394.2-.425.034-.004.031.002.061.018.042.021.126.05.254.03.196-.031 1.014-.118 1.079-.109s.318.009.362-.019.143-.206.139-.343c-.008-.292.136-.23-.066-.377-.064-.047-.094-.057-.172-.078-.063-.017-.147-.041-.232-.07-.165-.055-.373-.166-.443-.185-.367-.103-.257-.292-.075-.464.134-.128.189-.11.095-.301l-.108-.15c-.007-.009-.011-.019-.01-.026.002-.008.012-.024.021-.036.025-.037.076-.095.15-.148.063-.044.177-.127.254-.211.068-.074.103-.155.103-.155s.01-.123-.023-.217c-.033-.095-.044-.24-.063-.334-.008-.041-.006-.078-.012-.109-.004-.019-.019-.05-.023-.067-.02-.095-.051-.096-.111-.034-.015.016-.023.047-.046.068-.067.064-.178.197-.271.219-.04.009-.139.077-.225.111-.102.041-.199.02-.25.041-.051.02-.174.01-.252-.028-.049-.024-.156-.142-.234-.205-.033-.026-.068-.054-.087-.048-.011.004-.009.028-.019.047l.008.108c.019.086.029.147.04.202.009.043.027.08-.002.147-.031.072-.25.124-.403.2-.154.075-.599.096-.599.096.054.101.233.051.337.049.164-.002.2.029.279.067.078.038.299.107.407.117s.181.072.181.072c.104.181-.089.277-.089.277s-.136.069-.354.112c-.217.043-.589.211-.675.179-.086-.031-.175-.309-.175-.309s-.078-.182-.109-.163c-.162.102-.073.071-.089.187-.009.065-.001.325-.001.325-.045.057-.357.137-.444.149-.061.008-.282.017-.418-.002-.031-.005-.073-.018-.063-.059.015-.064.019-.12.042-.15.023-.029.071-.079.115-.149.026-.042.076-.113.097-.165.056-.141.492-.74.578-.85.059-.075.248-.25.34-.374.042-.056.02-.113.032-.125.038-.037.065-.178.065-.178l.009-.082zm1.336 2.222.442.493c.06.078.041.153-.028.226-.078.082-.234.188-.392.258-.091.041-.177.101-.273.095-.109-.007-.225-.086-.261-.112-.018-.013-.317-.028-.323-.106-.004-.048.026-.225.029-.297-.008-.065-.039-.25-.04-.34 0-.017-.038-.107-.008-.129.03-.021.499-.07.741-.112.095-.015.09.009.113.024zm-2.74-2.146c.004.116-.012.487-.004.538.009.058.116.132.046.206-.025.026-.08.084-.144.15-.115.119-.258.266-.317.318-.041.036-.116.131-.226.224-.107.092-.247.183-.356.242-.063.035-.102.074-.091-.037.002-.017.006-.036.017-.059.04-.091.053-.156.127-.241.075-.084.122-.218.18-.319.058-.102.217-.239.278-.33s.074-.163.132-.271c.034-.065.14-.215.231-.327.046-.057.091-.106.113-.122.018-.015.014.016.014.028z" fill-rule="evenodd"/><path clip-rule="evenodd" d="m11.655 22.607s-.069.233.065.501c.048.097.197.195.265.328.079.154.097.314.225.522.007.012.058.054.108.136.026.043.02.107.059.158.026.035.096.059.12.092.039.054.037.11.074.151.07.076.177.108.241.068.072-.044.221-.106.432-.119.096-.006.352-.209.281-.298-.051-.065-.111-.15-.259-.251-.148-.102-.591-.294-.848-.531s-.447-.447-.557-.532c-.11-.086-.206-.225-.206-.225zm2.936-1.912c.013-.04.073-.015.163-.033.058-.012.118-.045.164-.049.052-.005.111.039.219.04.383.007.6-.006.877.121 0 0 .207.111.25.282.044.172.011.207.002.254-.009.048-.278.346-.278.346s-.185-.083-.267-.147c-.083-.064-.578-.364-.631-.395-.021-.012-.145-.028-.233-.088-.11-.075-.235-.173-.269-.214l-.017-.057zm-3.734-.366c.021-.09.016-.165.019-.245s-.005-.153-.025-.243c-.01-.049-.053-.114-.066-.177-.059-.288-.097-.705-.188-1.179-.016-.082-.059-.145-.086-.224-.025-.07-.034-.158-.049-.221-.067-.281-.04-.427-.082-.622-.055-.257-.113-.522-.121-.586-.017-.137-.019-.25-.048-.339-.029-.088-.008-.169.021-.195.029-.027.134.006.134.006s.236-.021.322.005c.086.025.143.11.203.149.033.021.161.084.276.076.095-.007.176-.08.235-.105 0 0 .118-.136.166-.019.048.118.029.155.013.187-.028.058-.04.101-.064.136-.018.027-.057.068-.079.109-.094.175-.361.622-.406 1.141-.01.119-.013.255-.02.39-.006.112-.018.222-.013.335.007.149-.021.294.002.435.01.06.034.118.036.171.002.068-.019.13-.015.194.004.078.011.144.008.216-.002.082-.019.177-.031.264-.011.079-.03.157-.039.233-.004.034 0 .068-.003.103-.015.073-.01.105.07.127.041.012.048.015.08-.013.06-.054.172-.317.233-.692s.114-.693.114-.693.029-.333.027-.426.046-.083.046-.083.108-.021.123.019.045.072.045.072.143.028.235-.019c.054-.029.046-.142.056-.215.013-.1-.005-.444.017-.602.012-.091.048-.229.109-.359.045-.095.112-.182.154-.265.099-.199.135-.353.196-.49.053-.121.108-.289.248-.249 0 0 .13.045.147.095s.055.154.119.202c.063.049.264.407.4.539.136.133 1.323 1.258 1.622 1.451s.481.363.548.425c.067.061.711.521.741.545.03.023 1.189.864 1.31.967.12.103.448.344.491.387.027.026.281.218.326.271.051.06.043.145.017.201-.068.15-.114.277-.116.32-.001.03-.095.189-.146.251-.032.039-.085.063-.133.06-.062-.005-.129-.013-.206-.048-.043-.02-.118-.031-.205-.052-.112-.028-.252-.065-.435-.078-.407-.029-.579-.043-.635-.048-.027-.002-.032-.006-.055-.022-.052-.037-.162-.105-.145-.135.009-.017.084-.114.162-.214.061-.078.115-.163.162-.2.016-.012.096-.019.195-.036.09-.015.162-.044.197-.095.029-.043.112-.064.129-.151.017-.084-.061-.098-.104-.131-.03-.023-.867-.787-1.112-.967-.163-.12-.655-.463-1.031-.746-.19-.143-.351-.271-.425-.348-.219-.228-.661-.595-.743-.687-.082-.093-.604-.564-.709-.703s-.178-.227-.205-.268c-.059-.089-.15-.119-.157-.048-.01.089-.056.159-.114.213-.09.086-.208.092-.249.133-.082.081-.189.477-.185.547.003.07.09.408.053.504-.037.097-.099.29-.174.337 0 0-.066-.002-.137-.01-.071-.007-.173.011-.233.089-.061.079-.047.359-.031.439.016.079.056.139.056.139s.155-.15.206-.216c.256-.33.224-.299.591-.14 0 0 .143-.198.171-.283.027-.085.133-.022.133-.022s.074.067.091.119.101.406.108.546c.007.141.073.23.127.273.054.042.111.056.173-.011.062-.068.089-.202.331-.091 0 0 .137.048.138.097s.012.221.008.276.134.625.314.928c0 0 .013.145.446.346.433.2.547.278.585.328.039.049.338.174.303.717 0 0 .01.248-.325.22 0 0-.191-.002-.385-.163-.122-.1-.183-.151-.215-.171-.033-.021-.031-.011-.053.023-.029.043-.071.119-.05.162.029.061.119.169.166.234.046.065.114.301.093.391-.013.056-.04.09-.094.104-.033.008-.077.011-.131.002-.054-.01-.12-.002-.165-.018-.074-.026-.114-.086-.114-.17 0 0-.036-.153-.053-.33s-.023-.307-.036-.365-.019-.15-.058-.199c-.039-.05-.315-.254-.369-.296 0 0-.084-.017-.115.037-.031.052-.057.11.006.178s.108.122.075.165c-.033.042-.226.192-.345.109s-.231-.189-.243-.333c0 0 .052-.23.036-.445-.017-.215-.06-.346-.134-.413-.074-.066-.072-.094-.072-.094s-.064.182-.069.313.022.345-.005.43-.028.161-.074.183-.079.064-.301.066c-.223.001-.319.1-.475.066-.157-.034-.129-.119-.13-.207 0-.087.166-.315.188-.442.022-.128.101-.404.125-.597s.059-.524.069-.612c.01-.089-.024-.144-.024-.144l-.247-.229s-.069.014-.168.13-.149.067-.313.529c0 0-.075.222-.164.336-.089.115-.114.086-.161.146s-.134.147-.192.198c-.059.051-.431.102-.46.093s.125-.197.187-.324.128-.259.14-.323c.004-.022.008-.047.007-.078-.002-.04-.005-.071.004-.103.007-.028.013-.04.031-.062.014-.03.031-.036.045-.099zm-1.735.603c.038-.113.111-.16.164-.327.032-.1.036-.174.062-.279.03-.124.079-.238.068-.343 0 0-.006-.061.002-.144.006-.065.034-.143-.006-.219-.026-.05-.09-.074-.181-.117-.006-.003-.012-.006-.018-.009-.028-.012-.063-.01-.085-.029-.095-.088-.266-.128-.327-.226-.042-.067-.024-.141.013-.207.022-.039.021-.087.101-.097.06-.007.284.019.348.006.065-.013.169-.065.218-.082s.253-.066.342.026c.025.026.105.073.143.086s.046-.029.066-.027c.041.005.132.014.19.032s.165-.01.176.116c.008.087-.075.126-.058.187.008.028.042.052.066.115.035.093.109.248.084.331-.03.099-.167.121-.202.173-.064.094-.045.245-.051.393-.006.149-.051.475-.025.523.027.048.015.156.003.219s-.081.109-.177.116c-.069.005-.194-.014-.299-.021-.041-.002-.084-.018-.112-.007-.102.038-.238.017-.294.018-.036.001-.12.04-.17.032-.07-.011-.068-.16-.041-.239z" fill-rule="evenodd"/><path clip-rule="evenodd" d="m52.956 11.31s.179.084.22.153c.027.046.171.437.198.503.027.069.178.122.257.285.056.115.055.269.086.413.025.112.084.22.104.272.077.201.12.756-.027.822-.055.025-.171-.042-.253-.027-.136.025-.33.046-.429.055-.16.014-.259.122-.387.09s-.18-.078-.158-.211c.022-.132.252-.72.28-1.004.06-.605.126-1.086.109-1.351zm-4.254-2.48c.086.046.189.165.313.185.124.021 1.136.196 1.588.17.452-.025.615-.005.722-.024.108-.02.353.025.515-.196.162-.222.492-.704.598-.923s.224-.543.267-.668.088-.381.018-.577c0 0-.021-.208.07-.29s.262-.096.305-.144c.023-.025.061-.039.099-.035.023.003.053.021.062.027.019.011.03.036.034.045.021.05.116.278.201.425.095.163.348.6.371.698.024.098.051.264-.045.41 0 0-.103.11-.162.195s-.026.242-.129.275c-.102.033-.327.167-.394.271s-.119.224-.138.293-.036.161-.036.161.056.024.15.01c.095-.014.286.003.384-.021.049-.012.212.002.357-.034.087-.021.146-.092.228-.11.056-.012.114.002.155-.01.056-.015.108-.015.143-.027.044-.015.065-.041.093-.063.048-.036.045-.088.037-.137-.005-.028-.014-.063-.03-.097-.014-.03-.02-.074-.039-.112-.007-.014-.009-.022-.004-.033l.01-.021c.008-.013.025-.015.038-.004.035.027.143.112.181.177.045.077.19.263.213.345s-.028.138-.087.146c-.041.006-.206.019-.367.044-.067.01-.147.017-.187.035-.073.033-.186.058-.292.133-.093.066-.159.168-.263.195-.223.058-.558.053-.665.095s-.315.117-.433.21c-.117.093-.183.219-.255.232s-.254.155-.315.194c-.061.04-.202.288-.326.422s-.303.42-.335.495c-.032.074-.143.201-.233.306s-.267.26-.57.272c0 0-.235-.002-.373.036-.138.04-.278.07-.389.098-.112.029-.326.091-.824-.058s-.596-.203-.868-.265c-.237-.054-.661-.164-.764-.191-.04-.01.004-.109.063-.097.045.009.134.025.237.032.15.01.567-.086.905-.128.338-.041.711-.09.942-.188.23-.099.813-.222 1.025-.329s.527-.478.567-.571c0 0-.004-.145-.13-.133-.126.011-.639.099-.806.104-.168.005-.278-.021-.578.037-.301.058-.505.146-.657.014s-.225-.295-.338-.521c-.061-.124-.163-.352-.182-.53-.006-.056.032-.09.084-.134s.153-.161.239-.116z" fill-rule="evenodd"/></g></svg>